<?xml version="1.0" standalone="no"?>
<!DOCTYPE svg PUBLIC "-//W3C//DTD SVG 20010904//EN"
 "http://www.w3.org/TR/2001/REC-SVG-20010904/DTD/svg10.dtd">
<svg version="1.0" xmlns="http://www.w3.org/2000/svg"
 width="2816.000000pt" height="1536.000000pt" viewBox="0 0 2816.000000 1536.000000"
 preserveAspectRatio="xMidYMid meet">

<g transform="translate(0.000000,1536.000000) scale(0.100000,-0.100000)"
fill="#000000" stroke="none">
<path d="M13945 12063 c-126 -32 -218 -78 -289 -142 -30 -28 -114 -153 -159
-236 -49 -92 -158 -457 -142 -474 6 -5 100 18 169 42 112 38 366 8 526 -61 43
-19 88 -57 78 -67 -9 -9 -195 -7 -263 4 -141 22 -267 14 -418 -24 -142 -36
-256 -79 -307 -115 -15 -11 -31 -20 -34 -20 -14 0 -4 25 22 54 15 18 49 72 74
122 37 72 52 115 73 219 35 173 50 224 96 316 22 43 39 83 39 90 0 18 -73 3
-139 -29 -32 -15 -82 -53 -116 -87 -109 -109 -154 -239 -179 -515 -9 -91 -25
-199 -36 -240 -11 -41 -18 -80 -16 -86 3 -8 20 -9 53 -3 26 4 95 8 153 8 143
1 256 16 376 52 56 16 106 29 110 29 17 0 -54 -64 -119 -107 -118 -78 -146
-85 -367 -94 -209 -8 -340 -32 -413 -78 -64 -39 -63 -23 3 68 78 108 93 152
151 446 11 61 30 130 40 154 10 24 19 52 19 63 0 18 -5 19 -42 13 -104 -17
-212 -112 -272 -238 -44 -94 -54 -144 -61 -307 -7 -140 -17 -216 -41 -310 -8
-33 -10 -58 -5 -63 6 -6 35 -5 76 3 47 9 121 11 258 6 106 -4 216 -3 245 2 29
5 55 6 57 2 9 -14 -73 -80 -138 -110 -63 -30 -74 -32 -160 -29 -215 7 -282 4
-352 -15 -87 -23 -179 -64 -240 -106 -26 -18 -48 -30 -51 -28 -12 13 60 118
101 147 68 48 96 114 120 273 8 54 15 117 15 140 0 24 10 79 21 123 35 132 34
125 8 125 -73 -1 -201 -106 -248 -203 -40 -81 -69 -243 -76 -422 -3 -77 -14
-180 -24 -230 -10 -51 -14 -93 -9 -96 14 -9 115 9 188 33 52 17 101 23 245 28
99 4 188 11 199 15 16 7 17 5 8 -11 -22 -40 -80 -88 -140 -117 -58 -27 -75
-30 -230 -38 -234 -12 -307 -33 -449 -127 -29 -19 -56 -32 -60 -29 -3 4 21 62
55 129 72 145 77 164 91 333 6 72 19 176 28 233 9 56 13 105 10 109 -4 3 -26
1 -49 -6 -56 -17 -161 -123 -206 -209 -35 -66 -44 -113 -77 -397 -15 -125 -58
-331 -77 -367 -5 -10 -21 -24 -36 -32 l-27 -14 2 86 c1 48 4 101 7 117 3 17
13 96 21 177 8 81 18 154 21 163 8 20 -24 20 -71 1 -75 -32 -173 -162 -275
-366 -53 -106 -172 -323 -196 -355 -12 -16 -49 -89 -83 -162 -34 -73 -83 -167
-109 -210 -26 -43 -51 -85 -54 -93 -3 -8 -35 -55 -72 -104 -37 -50 -71 -106
-76 -130 -6 -22 -33 -84 -59 -136 -71 -140 -171 -451 -183 -570 -24 -240 -17
-465 17 -547 8 -20 15 -43 15 -53 0 -9 9 -43 21 -76 11 -32 29 -92 40 -133 11
-41 27 -84 35 -95 8 -11 14 -26 14 -34 0 -7 34 -75 76 -150 57 -104 90 -151
137 -197 34 -33 97 -98 141 -144 173 -183 505 -331 846 -377 58 -8 130 -18
160 -22 30 -4 177 -6 325 -4 149 2 279 3 290 3 174 -3 638 2 765 10 14 0 77
-2 140 -5 191 -11 920 -13 1000 -4 41 5 89 11 105 13 17 2 51 -3 77 -11 35
-12 80 -14 185 -10 231 8 603 4 619 -6 6 -4 26 -3 45 3 36 12 260 21 499 21
80 -1 219 4 310 9 118 8 195 7 270 -1 124 -13 473 -18 512 -7 33 9 64 51 73
97 8 45 -25 97 -79 124 -32 16 -60 18 -185 18 -81 -1 -196 -6 -256 -12 -60 -5
-111 -7 -114 -4 -9 8 67 150 98 183 30 32 20 32 246 11 169 -15 360 -19 406
-8 31 7 40 15 53 48 20 51 20 93 0 131 -26 52 -66 61 -257 60 -93 -1 -173 -3
-177 -6 -11 -7 -160 -8 -167 -2 -3 3 19 50 49 104 l54 98 54 -2 c30 -1 96 -7
145 -12 169 -19 379 -25 418 -12 49 16 87 63 87 106 0 51 -17 80 -64 106 -38
22 -52 23 -211 24 -184 0 -265 -4 -307 -16 -27 -7 -45 1 -30 15 4 4 27 46 52
94 l45 87 60 -1 c33 0 169 -4 302 -8 273 -8 292 -4 319 59 21 50 17 77 -15
122 -35 48 -61 54 -226 52 -60 -1 -177 -2 -259 -3 l-150 -1 3 101 c4 162 -41
292 -141 409 -28 33 -76 93 -106 134 -133 181 -163 193 -193 80 -9 -35 -25
-85 -35 -112 -16 -40 -16 -51 -6 -68 16 -25 8 -37 -12 -20 -12 10 -24 0 -69
-57 -30 -38 -94 -109 -141 -158 -48 -49 -102 -111 -120 -139 -19 -27 -43 -59
-55 -69 -12 -11 -21 -25 -21 -33 0 -7 -4 -13 -8 -13 -17 0 -12 89 8 153 29 94
64 150 149 241 127 135 201 248 226 345 8 32 17 107 20 166 7 152 31 174 85
78 74 -133 335 -473 362 -473 29 0 61 179 48 267 -12 73 -72 167 -180 278 -53
55 -129 137 -169 183 -40 45 -79 82 -87 82 -14 0 -46 -91 -59 -167 -8 -50 -45
-110 -134 -217 -158 -190 -245 -318 -239 -354 3 -23 -10 -42 -29 -42 -13 0
-15 10 -10 63 11 120 39 181 154 347 113 161 174 269 199 348 24 78 29 216 10
306 -9 44 -15 80 -13 82 1 2 20 -22 42 -53 110 -155 191 -259 251 -325 37 -40
101 -115 142 -166 69 -87 75 -92 87 -74 21 29 38 148 31 216 -4 44 -18 85 -48
145 -51 100 -103 160 -201 234 -85 64 -310 179 -340 175 -18 -2 -23 -12 -28
-48 -19 -133 -48 -224 -110 -337 -92 -169 -130 -247 -140 -289 -13 -50 -36
-65 -45 -30 -14 55 16 206 70 354 76 207 89 274 81 397 -7 107 -23 163 -79
272 -47 91 -68 122 -102 144 -61 40 -60 46 -59 -250 0 -148 3 -267 6 -265 3 2
6 -9 6 -24 0 -20 -5 -28 -18 -28 -10 0 -16 3 -14 6 5 8 -21 82 -46 131 -27 54
-59 183 -59 242 0 52 -14 161 -31 242 -30 143 -117 310 -208 400 l-65 64 24
26 c28 30 34 30 118 5 37 -11 118 -26 180 -35 112 -14 217 -49 244 -82 7 -8
22 -19 35 -24 39 -15 29 -38 -14 -33 -48 5 -325 24 -353 24 -19 0 -20 -2 -6
-27 18 -36 108 -148 138 -173 29 -25 180 -76 278 -94 119 -22 268 -65 336 -96
75 -34 90 -27 73 36 -28 100 -104 193 -227 276 -48 32 -72 54 -68 64 3 7 1 51
-5 96 -5 47 -8 293 -7 563 2 264 1 550 -1 635 -3 146 -4 157 -27 187 -13 17
-38 36 -56 42 -51 16 -637 10 -666 -7 -49 -28 -53 -60 -51 -387 1 -166 -1
-307 -5 -313 -4 -7 -18 -10 -34 -6 -55 13 -81 34 -101 80 -11 25 -33 58 -49
72 -16 15 -55 59 -87 97 -72 85 -71 85 -165 134 -145 76 -299 80 -578 12 -154
-37 -212 -59 -212 -81 0 -6 36 -49 79 -96 44 -46 95 -109 115 -138 56 -85 132
-285 151 -399 5 -33 4 -38 -11 -35 -23 4 -143 173 -200 283 -125 240 -228 328
-412 355 -146 21 -267 5 -414 -54 -34 -14 -64 -23 -67 -20 -3 2 11 21 31 42
55 58 166 201 195 250 37 63 110 143 198 217 36 31 147 84 176 85 22 0 34 31
17 42 -46 29 -210 63 -253 51z m240 -73 c3 -5 1 -10 -4 -10 -6 0 -11 5 -11 10
0 6 2 10 4 10 3 0 8 -4 11 -10z m-421 -185 c-25 -19 -40 -19 -24 0 7 8 20 15
28 15 13 0 12 -3 -4 -15z m2219 -121 c-7 -19 -22 -8 -20 16 1 14 5 16 13 9 7
-6 10 -17 7 -25z m-163 -18 c-13 -13 -35 7 -25 24 5 8 11 8 21 -1 10 -8 12
-15 4 -23z m390 13 c0 -6 -4 -7 -10 -4 -5 3 -10 11 -10 16 0 6 5 7 10 4 6 -3
10 -11 10 -16z m-322 -33 c3 -12 -1 -17 -10 -14 -7 3 -15 13 -16 22 -3 12 1
17 10 14 7 -3 15 -13 16 -22z m-2234 -5 c3 -5 -1 -14 -9 -21 -13 -10 -15 -9
-15 9 0 21 14 28 24 12z m2426 -22 c-6 -11 -15 -17 -21 -14 -5 4 -5 14 1 26 6
11 15 17 21 14 5 -4 5 -14 -1 -26z m115 12 c7 -12 -12 -24 -25 -16 -11 7 -4
25 10 25 5 0 11 -4 15 -9z m-232 -62 c-17 -17 -37 -1 -22 17 8 10 15 12 23 4
7 -7 7 -13 -1 -21z m111 -14 c3 -8 0 -15 -6 -15 -6 0 -8 -3 -5 -7 4 -3 -2 -13
-14 -21 -15 -10 -24 -11 -32 -3 -7 7 -6 12 7 17 11 4 15 13 11 25 -5 14 -1 19
13 19 11 0 22 -7 26 -15z m100 9 c13 -5 14 -10 5 -20 -8 -10 -16 -11 -31 -3
-17 9 -18 13 -7 20 17 11 14 10 33 3z m94 -5 c-2 -6 -8 -10 -13 -10 -5 0 -11
4 -13 10 -2 6 4 11 13 11 9 0 15 -5 13 -11z m-337 -19 c20 -11 27 -44 7 -38
-13 5 -44 48 -34 48 4 0 16 -5 27 -10z m-2707 -15 c-4 -8 -10 -15 -15 -15 -4
0 -6 7 -3 15 4 8 10 15 15 15 4 0 6 -7 3 -15z m2916 -36 c0 -10 -4 -19 -10
-19 -5 0 -10 12 -10 26 0 14 4 23 10 19 6 -3 10 -15 10 -26z m38 -16 c5 -10 7
-24 5 -31 -7 -18 -33 5 -33 29 0 24 16 25 28 2z m-248 -3 c0 -5 -9 -10 -20
-10 -11 0 -20 5 -20 10 0 6 9 10 20 10 11 0 20 -4 20 -10z m175 0 c3 -5 -1
-10 -9 -10 -9 0 -16 5 -16 10 0 6 4 10 9 10 6 0 13 -4 16 -10z m-65 -4 c0 -2
-7 -6 -15 -10 -8 -3 -15 -1 -15 4 0 6 7 10 15 10 8 0 15 -2 15 -4z m-190 -15
c0 -12 -20 -25 -27 -18 -7 7 6 27 18 27 5 0 9 -4 9 -9z m155 -22 c10 -15 -1
-23 -20 -15 -9 3 -13 10 -10 16 8 13 22 13 30 -1z m65 -9 c0 -11 -4 -20 -9
-20 -13 0 -32 26 -24 33 13 14 33 6 33 -13z m-2896 -14 c-3 -9 -10 -16 -15
-16 -6 0 -5 9 1 21 13 24 24 20 14 -5z m2976 -1 c10 -12 9 -16 -5 -21 -19 -8
-40 9 -31 25 10 15 21 14 36 -4z m-856 -35 c-6 -5 -24 21 -24 34 0 6 6 1 14
-10 8 -10 12 -21 10 -24z m733 -14 c-4 -9 -13 -13 -22 -10 -18 7 -20 31 -2 37
17 6 31 -9 24 -27z m163 20 c0 -3 -4 -8 -10 -11 -5 -3 -10 -1 -10 4 0 6 5 11
10 11 6 0 10 -2 10 -4z m-1340 -31 c149 -7 248 -23 300 -50 36 -19 100 -74
100 -86 0 -14 -146 -10 -240 6 -47 8 -91 15 -97 15 -24 0 -13 -28 42 -101 69
-93 106 -189 139 -356 14 -73 44 -198 66 -278 22 -80 40 -147 40 -150 0 -18
-28 6 -94 82 -70 81 -78 95 -105 183 -16 52 -43 160 -61 240 -17 80 -42 168
-54 195 -37 80 -114 194 -171 251 -51 51 -59 69 -26 60 9 -3 81 -8 161 -11z
m992 -10 c0 -5 -5 -11 -11 -13 -6 -2 -11 4 -11 13 0 9 5 15 11 13 6 -2 11 -8
11 -13z m293 5 c3 -5 1 -10 -4 -10 -6 0 -11 5 -11 10 0 6 2 10 4 10 3 0 8 -4
11 -10z m74 -16 c-14 -18 -24 -11 -15 11 3 9 11 13 16 10 8 -5 7 -11 -1 -21z
m-974 -23 c3 -5 1 -13 -5 -16 -15 -9 -43 3 -35 15 8 13 32 13 40 1z m865 -22
c0 -20 -15 -26 -24 -10 -8 13 4 42 15 35 5 -3 9 -14 9 -25z m-220 1 c0 -11 -4
-20 -9 -20 -14 0 -23 18 -16 30 10 17 25 11 25 -10z m74 -9 c9 -15 -23 -36
-36 -23 -5 5 -7 15 -4 21 9 13 33 14 40 2z m-664 -10 c0 -5 -7 -14 -15 -21
-12 -10 -15 -10 -15 2 0 8 3 18 7 21 9 10 23 9 23 -2z m460 -22 c0 -5 -4 -9
-10 -9 -5 0 -10 7 -10 16 0 8 5 12 10 9 6 -3 10 -10 10 -16z m320 2 c0 -14
-18 -23 -30 -16 -6 4 -8 11 -5 16 8 12 35 12 35 0z m-665 -11 c3 -5 1 -10 -4
-10 -6 0 -11 5 -11 10 0 6 2 10 4 10 3 0 8 -4 11 -10z m590 -8 c0 -18 -20 -15
-23 4 -3 10 1 15 10 12 7 -3 13 -10 13 -16z m-180 -2 c3 -5 -3 -10 -14 -10
-12 0 -21 5 -21 10 0 6 6 10 14 10 8 0 18 -4 21 -10z m363 -22 c-5 -15 -23
-11 -26 6 -2 11 2 14 13 10 9 -4 14 -11 13 -16z m-112 -9 c9 -16 -12 -33 -31
-25 -14 5 -15 9 -5 21 15 18 26 19 36 4z m74 -11 c0 -13 -23 -5 -28 10 -2 7 2
10 12 6 9 -3 16 -11 16 -16z m-172 0 c16 -16 15 -27 0 -24 -19 3 -38 16 -38
27 0 13 24 11 38 -3z m138 -33 c8 -21 -6 -41 -17 -24 -12 19 -11 39 1 39 6 0
13 -7 16 -15z m-236 -9 c0 -20 -19 -31 -32 -18 -6 6 -7 15 -4 21 10 16 36 13
36 -3z m168 2 c7 -7 12 -18 12 -25 0 -11 -5 -11 -20 -3 -11 6 -20 17 -20 25 0
18 12 19 28 3z m130 -13 c-2 -5 -8 -10 -15 -11 -6 -1 -9 4 -6 12 6 16 27 15
21 -1z m-192 -37 c4 -7 3 -8 -4 -4 -7 4 -12 2 -12 -5 0 -7 -3 -10 -6 -6 -6 5
3 27 11 27 2 0 7 -5 11 -12z m-636 -16 c0 -13 -12 -22 -22 -16 -10 6 -1 24 13
24 5 0 9 -4 9 -8z m-1735 -42 c-5 -8 -11 -8 -17 -2 -6 6 -7 16 -3 22 5 8 11 8
17 2 6 -6 7 -16 3 -22z m2411 -19 c-9 -14 -33 -14 -41 -1 -4 6 -1 18 6 26 11
13 14 13 27 0 8 -8 11 -19 8 -25z m80 28 c3 -6 0 -15 -7 -20 -13 -7 -28 5 -29
24 0 11 28 8 36 -4z m-316 -29 c0 -5 -4 -10 -9 -10 -6 0 -13 5 -16 10 -3 6 1
10 9 10 9 0 16 -4 16 -10z m344 -20 c-22 -9 -29 -6 -20 9 4 6 14 7 23 4 15 -6
14 -7 -3 -13z m-233 -23 c-1 -12 -15 -9 -19 4 -3 6 1 10 8 8 6 -3 11 -8 11
-12z m-606 -26 c33 -6 120 -18 193 -26 73 -9 164 -27 205 -41 73 -25 169 -82
164 -98 -4 -11 -219 -8 -295 4 -88 15 -152 13 -152 -5 0 -8 31 -58 69 -112 37
-54 73 -107 79 -119 6 -11 16 -76 21 -143 11 -118 62 -405 82 -458 37 -98 -94
53 -158 182 -25 50 -28 60 -53 230 -31 211 -73 323 -158 423 -25 30 -62 65
-84 79 -28 19 -38 32 -38 52 0 34 19 53 45 47 11 -3 47 -9 80 -15z m793 1 c2
-7 -3 -12 -12 -12 -9 0 -16 7 -16 16 0 17 22 14 28 -4z m-1818 -1 c0 -6 -4
-13 -10 -16 -5 -3 -10 1 -10 9 0 9 5 16 10 16 6 0 10 -4 10 -9z m1730 -41 c0
-5 -5 -10 -11 -10 -5 0 -7 5 -4 10 3 6 8 10 11 10 2 0 4 -4 4 -10z m255 -40
c-5 -8 -11 -8 -17 -2 -6 6 -7 16 -3 22 5 8 11 8 17 2 6 -6 7 -16 3 -22z
m-1490 -21 c11 -17 -1 -21 -15 -4 -8 9 -8 15 -2 15 6 0 14 -5 17 -11z m-539
-20 c31 -12 90 -48 133 -83 42 -34 101 -80 131 -102 68 -51 318 -275 544 -489
93 -88 212 -196 265 -241 91 -76 158 -143 191 -190 8 -11 38 -38 66 -60 64
-50 181 -186 227 -262 47 -77 92 -210 114 -334 17 -92 18 -155 16 -578 -2
-261 -3 -497 -3 -525 0 -75 -30 -204 -57 -253 -39 -68 -58 -76 -203 -80 -105
-4 -129 -2 -142 11 -13 14 -16 76 -20 459 l-5 443 -27 89 c-116 388 -528 600
-945 486 -80 -22 -200 -82 -266 -134 -135 -105 -239 -299 -260 -482 -4 -34 -8
-240 -9 -458 -2 -260 -7 -401 -13 -407 -7 -7 -106 -12 -274 -12 l-264 -2 3 23
c6 42 107 389 141 483 11 31 38 121 60 200 22 79 69 232 106 339 95 281 113
351 124 498 9 129 1 242 -29 380 -44 201 -176 426 -331 564 -75 66 -174 138
-190 138 -25 0 -2 31 57 80 37 30 111 96 165 145 195 177 330 282 432 336 63
33 81 39 139 39 45 0 86 -7 124 -21z m1989 -48 c3 -5 1 -13 -5 -16 -15 -9 -43
3 -35 15 8 13 32 13 40 1z m-360 -101 c3 -5 -3 -10 -15 -10 -12 0 -18 5 -15
10 3 6 10 10 15 10 5 0 12 -4 15 -10z m-3525 -50 c0 -5 -4 -10 -10 -10 -5 0
-10 5 -10 10 0 6 5 10 10 10 6 0 10 -4 10 -10z m3968 -1 c-2 -6 -8 -10 -13
-10 -5 0 -11 4 -13 10 -2 6 4 11 13 11 9 0 15 -5 13 -11z m-301 -285 c-3 -3
-12 -4 -19 -1 -8 3 -5 6 6 6 11 1 17 -2 13 -5z m-4093 -185 c-3 -5 -10 -7 -15
-3 -5 3 -7 10 -3 15 3 5 10 7 15 3 5 -3 7 -10 3 -15z m3576 -32 c0 -5 -4 -5
-10 -2 -5 3 -10 14 -10 23 0 15 2 15 10 2 5 -8 10 -19 10 -23z m-2288 -49 c5
-26 -2 -54 -19 -83 -9 -16 -14 -18 -24 -7 -11 10 -11 12 0 12 7 0 10 4 6 9 -3
6 1 14 10 18 13 8 13 12 0 37 -19 36 -19 36 4 36 11 0 20 -9 23 -22z m121 -79
c8 -30 -12 -33 -25 -5 -6 14 -19 26 -29 26 -19 0 -32 13 -23 23 11 10 72 -25
77 -44z m-413 31 c0 -5 -4 -10 -10 -10 -5 0 -10 5 -10 10 0 6 5 10 10 10 6 0
10 -4 10 -10z m2305 0 c3 -5 2 -10 -4 -10 -5 0 -13 5 -16 10 -3 6 -2 10 4 10
5 0 13 -4 16 -10z m-2160 -28 c-8 -8 -25 10 -19 20 4 6 9 5 15 -3 4 -7 6 -15
4 -17z m25 18 c0 -5 -2 -10 -4 -10 -3 0 -8 5 -11 10 -3 6 -1 10 4 10 6 0 11
-4 11 -10z m43 -20 c-3 -11 -7 -20 -9 -20 -2 0 -4 9 -4 20 0 11 4 20 9 20 5 0
7 -9 4 -20z m279 -36 c10 -22 16 -25 45 -19 41 7 43 -8 3 -29 -29 -14 -31 -14
-55 18 -14 18 -25 38 -25 44 0 21 20 12 32 -14z m-387 6 c3 -5 2 -10 -4 -10
-5 0 -13 5 -16 10 -3 6 -2 10 4 10 5 0 13 -4 16 -10z m195 -10 c0 -5 -4 -10
-10 -10 -5 0 -10 5 -10 10 0 6 5 10 10 10 6 0 10 -4 10 -10z m130 -15 c17 -21
5 -31 -15 -12 -8 9 -15 18 -15 21 0 11 18 6 30 -9z m-40 -47 c0 -10 -4 -18 -9
-18 -13 0 -21 27 -14 46 5 13 7 13 14 2 5 -7 9 -21 9 -30z m-340 6 c0 -8 -5
-12 -10 -9 -6 4 -8 11 -5 16 9 14 15 11 15 -7z m125 -2 c-3 -3 -11 0 -18 7 -9
10 -8 11 6 5 10 -3 15 -9 12 -12z m2660 8 c3 -5 1 -10 -4 -10 -6 0 -11 5 -11
10 0 6 2 10 4 10 3 0 8 -4 11 -10z m-2496 -41 c-13 -26 -23 -18 -14 10 3 12
11 19 16 16 5 -4 5 -14 -2 -26z m-204 10 c11 -17 0 -20 -21 -4 -17 13 -17 14
-2 15 9 0 20 -5 23 -11z m470 -9 c0 -7 -6 -15 -12 -17 -8 -3 -13 4 -13 17 0
13 5 20 13 18 6 -3 12 -11 12 -18z m-311 -41 c-9 -15 -23 -10 -34 11 -17 32 0
47 22 21 10 -13 15 -27 12 -32z m-84 16 c0 -9 -6 -12 -15 -9 -18 7 -18 4 -5
-30 13 -35 4 -33 -15 4 -14 27 -14 30 3 39 24 14 32 13 32 -4z m440 0 c0 -8
-7 -15 -15 -15 -16 0 -20 12 -8 23 11 12 23 8 23 -8z m-845 -5 c10 -16 -16
-43 -28 -31 -11 11 -2 41 12 41 5 0 13 -5 16 -10z m285 0 c0 -5 -9 -19 -21
-31 -19 -19 -19 -22 -5 -38 15 -16 15 -20 1 -31 -19 -16 -45 -6 -45 18 0 11
12 32 27 48 15 16 26 32 25 37 -1 4 3 7 8 7 6 0 10 -4 10 -10z m280 -20 c-22
-14 -40 -12 -40 4 0 17 31 26 45 14 6 -6 5 -12 -5 -18z m75 -21 c-10 -15 -22
-10 -28 11 -4 17 -2 18 14 9 11 -5 17 -14 14 -20z m-570 11 c3 -5 1 -10 -4
-10 -6 0 -11 5 -11 10 0 6 2 10 4 10 3 0 8 -4 11 -10z m81 -20 c19 -8 24 -14
17 -21 -12 -12 -53 5 -53 21 0 12 2 12 36 0z m344 -8 c-24 -11 -18 -31 18 -52
17 -11 32 -26 32 -34 0 -21 -23 -33 -29 -15 -2 8 -22 31 -45 51 l-40 37 24 10
c30 12 65 14 40 3z m2729 -64 c1 -21 -3 -38 -8 -38 -10 0 -22 91 -13 104 8 14
20 -24 21 -66z m-3269 52 c0 -5 -7 -10 -15 -10 -8 0 -15 5 -15 10 0 6 7 10 15
10 8 0 15 -4 15 -10z m595 -1 c11 -16 1 -19 -13 -3 -7 8 -8 14 -3 14 5 0 13
-5 16 -11z m345 1 c0 -13 -28 -25 -38 -16 -3 4 0 11 8 16 20 13 30 12 30 0z
m-518 -25 c0 -5 -5 -11 -11 -13 -6 -2 -11 4 -11 13 0 9 5 15 11 13 6 -2 11 -8
11 -13z m308 11 c0 -2 3 -11 6 -20 4 -11 0 -16 -14 -16 -20 0 -36 23 -25 34 7
7 33 8 33 2z m-69 -21 c-1 -15 -24 -12 -29 3 -3 9 2 13 12 10 10 -1 17 -7 17
-13z m-982 -76 c-38 -34 -102 -78 -156 -106 l-93 -48 38 -7 c101 -17 305 -61
372 -79 92 -25 236 -92 321 -150 74 -50 306 -279 344 -339 80 -127 190 -399
169 -418 -3 -4 -9 -2 -11 4 -6 18 -136 215 -176 267 -79 103 -233 258 -287
289 -30 17 -95 55 -145 84 -117 69 -195 98 -368 135 -115 25 -171 31 -290 34
-183 3 -278 -7 -432 -46 -165 -42 -214 -61 -318 -119 -49 -28 -91 -50 -93 -47
-14 14 155 191 211 219 22 12 110 48 195 80 85 33 241 101 345 153 105 51 224
104 265 116 41 13 80 28 85 35 15 17 47 22 69 11 17 -8 13 -15 -45 -68z m478
37 c-2 -5 -8 -11 -14 -13 -12 -4 -22 26 -15 46 4 11 8 10 19 -4 7 -11 12 -24
10 -29z m-207 -1 c0 -5 -5 -3 -10 5 -5 8 -10 20 -10 25 0 6 5 3 10 -5 5 -8 10
-19 10 -25z m151 -3 c7 -18 6 -28 -3 -34 -18 -11 -28 -10 -28 3 0 5 5 7 10 4
6 -3 10 1 10 9 0 9 -4 16 -10 16 -5 0 -10 9 -10 21 0 26 18 15 31 -19z m267
21 c-4 -23 -48 -31 -48 -10 0 9 6 18 13 20 25 11 38 7 35 -10z m-573 -2 c7
-12 -12 -24 -25 -16 -11 7 -4 25 10 25 5 0 11 -4 15 -9z m690 -1 c-3 -5 -10
-10 -16 -10 -5 0 -9 5 -9 10 0 6 7 10 16 10 8 0 12 -4 9 -10z m445 -12 c0 -25
-12 -58 -21 -58 -10 0 -12 31 -3 54 7 19 24 21 24 4z m-240 -24 c0 -8 -5 -13
-12 -11 -6 1 -12 -8 -12 -20 -1 -28 -20 -31 -24 -3 -2 11 3 23 12 26 9 3 16
13 16 21 0 8 5 11 10 8 6 -3 10 -13 10 -21z m73 12 c7 -17 -10 -25 -35 -18
-13 3 -14 7 -5 18 16 18 34 18 40 0z m62 8 c18 -7 45 -54 45 -79 0 -8 -7 -15
-15 -15 -14 0 -19 13 -27 65 -3 12 -10 19 -21 17 -9 -2 -17 2 -17 8 0 11 11
13 35 4z m-2010 -14 c3 -5 1 -10 -4 -10 -6 0 -11 5 -11 10 0 6 2 10 4 10 3 0
8 -4 11 -10z m1705 -5 c10 -12 9 -15 -8 -15 -11 0 -22 7 -26 15 -3 9 0 15 8
15 7 0 19 -7 26 -15z m-483 -11 c12 -11 13 -18 4 -27 -8 -8 -11 -7 -11 6 0 9
-7 17 -15 17 -8 0 -15 5 -15 10 0 15 19 12 37 -6z m-252 -4 c-3 -5 -1 -10 6
-10 7 0 10 -2 7 -5 -7 -8 -38 5 -38 16 0 5 7 9 16 9 8 0 12 -4 9 -10z m388 -7
c-3 -7 -9 -13 -14 -13 -5 0 -9 6 -9 13 0 8 6 14 14 14 8 0 12 -6 9 -14z m209
-15 c-15 -15 -26 -4 -18 18 5 13 9 15 18 6 9 -9 9 -15 0 -24z m368 -3 c0 -9 6
-12 15 -9 10 4 18 -3 24 -19 5 -14 16 -27 23 -30 11 -4 11 -7 0 -18 -12 -12
-16 -11 -29 9 -9 12 -21 22 -29 22 -13 0 -44 37 -44 52 0 5 9 8 20 8 11 0 20
-7 20 -15z m-900 -5 c0 -5 -7 -10 -15 -10 -8 0 -15 5 -15 10 0 6 7 10 15 10 8
0 15 -4 15 -10z m360 -4 c0 -8 -4 -18 -10 -21 -5 -3 -10 -4 -10 -1 0 2 -3 11
-6 20 -4 11 -1 16 10 16 9 0 16 -6 16 -14z m85 -2 c-11 -8 -30 -17 -41 -20
-19 -5 -21 -9 -11 -35 14 -36 29 -38 23 -3 -4 22 -2 25 15 21 12 -3 22 0 26 9
3 8 9 11 14 8 6 -3 17 0 25 7 12 10 13 9 8 -5 -3 -9 -10 -17 -15 -17 -5 -1
-15 -2 -21 -3 -7 -1 -12 -7 -10 -14 1 -7 -4 -11 -10 -9 -12 2 -12 -4 0 -46 3
-13 -2 -20 -17 -24 -14 -3 -21 -13 -21 -29 0 -12 -4 -26 -10 -29 -5 -3 -10
-17 -10 -29 0 -25 -22 -49 -47 -52 -10 -2 -6 7 12 26 25 26 26 28 7 34 -10 4
-27 4 -36 0 -21 -8 -20 2 2 27 12 12 25 17 35 13 16 -6 19 -2 21 29 1 6 -14
14 -33 17 -19 3 -36 10 -38 16 -5 16 30 24 51 12 25 -14 28 -6 12 32 -12 30
-12 35 3 50 19 20 38 28 66 29 l20 0 -20 -15z m155 7 c0 -5 3 -16 6 -24 4 -12
0 -14 -15 -10 -24 6 -29 43 -6 43 8 0 15 -4 15 -9z m-765 -11 c-4 -7 2 -9 18
-5 15 4 30 1 40 -9 8 -9 23 -16 31 -16 9 0 16 -4 16 -10 0 -13 -10 -12 -40 5
-14 8 -37 14 -52 15 -18 0 -28 5 -28 15 0 8 5 15 11 15 5 0 7 -5 4 -10z m421
-5 c14 -13 14 -15 1 -15 -25 0 -47 11 -41 21 8 13 23 11 40 -6z m388 -1 c9
-22 8 -24 -9 -18 -8 4 -15 12 -15 20 0 19 16 18 24 -2z m76 7 c0 -20 -31 -81
-39 -77 -10 7 -9 56 2 74 9 14 37 17 37 3z m-592 -30 c3 -16 -1 -22 -10 -19
-7 3 -15 15 -16 27 -3 16 1 22 10 19 7 -3 15 -15 16 -27z m77 3 c21 -19 34
-24 55 -19 34 7 46 -7 24 -29 -19 -19 -14 -19 -58 -1 -22 9 -41 26 -46 41 -17
43 -14 44 25 8z m645 2 c9 -19 10 -32 2 -56 -7 -18 -7 -28 -2 -25 6 4 10 1 10
-4 0 -6 -5 -11 -12 -11 -6 0 -8 -3 -4 -7 4 -5 13 -8 19 -8 7 0 13 -10 13 -22
2 -35 -33 -11 -41 29 -9 39 -30 61 -61 66 -16 2 -24 -2 -24 -13 0 -8 -6 -15
-12 -15 -10 0 -9 -3 1 -9 7 -5 10 -14 6 -21 -5 -8 -10 -9 -18 -1 -17 17 -27
13 -36 -11 -9 -24 7 -63 42 -102 21 -25 21 -29 -1 -56 -18 -22 -19 -22 -50 -6
-18 9 -30 21 -27 26 7 11 35 2 35 -12 0 -5 4 -7 9 -4 5 4 12 0 14 -6 3 -7 6
-3 6 10 1 13 5 20 11 17 6 -3 10 -1 10 4 0 6 -4 11 -9 11 -5 0 -23 19 -40 42
-23 31 -28 45 -20 54 6 7 8 18 4 23 -5 9 91 110 106 111 3 0 12 -11 19 -25 15
-29 46 -36 35 -7 -22 53 -11 75 15 28z m270 5 c0 -6 -4 -13 -10 -16 -5 -3 -10
1 -10 9 0 9 5 16 10 16 6 0 10 -4 10 -9z m-779 -29 c5 -13 3 -22 -5 -25 -7 -3
-17 7 -23 23 -9 23 -8 27 5 26 8 -2 19 -12 23 -24z m209 20 c0 -14 -11 -21
-26 -15 -8 3 -11 9 -8 14 7 11 34 12 34 1z m590 -16 c0 -15 -18 -31 -26 -23
-7 7 7 37 17 37 5 0 9 -6 9 -14z m-68 -38 c-16 -16 -37 4 -28 28 6 16 8 16 23
1 13 -13 15 -19 5 -29z m-1002 23 c0 -13 -28 -22 -35 -11 -3 4 1 11 7 13 20 8
28 8 28 -2z m590 -6 c0 -9 -6 -12 -15 -9 -8 4 -15 10 -15 15 0 5 7 9 15 9 8 0
15 -7 15 -15z m-132 -11 c25 -17 28 -50 8 -76 -23 -31 -76 -17 -76 20 0 11 8
13 35 8 41 -8 46 5 10 28 -27 18 -33 36 -12 36 7 0 23 -7 35 -16z m87 -11 c4
-16 11 -36 16 -47 8 -14 7 -22 -7 -35 -9 -9 -14 -11 -11 -5 4 7 0 17 -8 24
-17 14 -21 90 -5 90 5 0 12 -12 15 -27z m318 -5 c11 -22 13 -37 6 -50 -12 -22
-33 -24 -25 -2 3 8 -1 28 -9 44 -18 36 -19 40 -1 40 7 0 20 -14 29 -32z
m-2095 -9 c-2 -6 -8 -10 -13 -10 -5 0 -11 4 -13 10 -2 6 4 11 13 11 9 0 15 -5
13 -11z m912 2 c0 -6 -5 -13 -11 -16 -15 -10 -81 4 -74 16 8 12 85 12 85 0z
m78 -18 c2 -8 -5 -13 -17 -13 -12 0 -21 6 -21 16 0 18 31 15 38 -3z m380 -12
c-2 -26 -4 -28 -23 -19 -11 6 -21 11 -22 10 -2 -1 -4 1 -5 4 -2 4 39 32 50 34
1 0 1 -13 0 -29z m595 11 c10 -11 13 -22 7 -32 -10 -16 14 -39 41 -40 14 0 29
-19 29 -36 0 -2 -18 6 -39 17 -23 12 -44 31 -49 47 -6 15 -13 35 -17 45 -9 22
7 22 28 -1z m-535 -8 c-4 -20 -34 -41 -44 -31 -8 7 25 45 39 46 5 1 7 -6 5
-15z m912 -4 c0 -5 -5 -10 -11 -10 -5 0 -7 5 -4 10 3 6 8 10 11 10 2 0 4 -4 4
-10z m2447 -37 c-4 -17 -4 -17 -12 0 -4 9 -4 25 0 35 8 16 8 16 12 0 3 -10 3
-26 0 -35z m-2562 6 c0 -32 -30 -38 -38 -7 -4 13 -1 26 6 30 19 12 32 3 32
-23z m-755 -1 c0 -18 -2 -20 -9 -8 -6 8 -7 18 -5 22 9 14 14 9 14 -14z m472
-34 c7 -20 19 -34 29 -34 19 0 42 -24 32 -33 -14 -15 -39 -5 -75 30 -35 34
-48 70 -31 86 10 11 31 -12 45 -49z m-869 39 c-7 -2 -19 -2 -25 0 -7 3 -2 5
12 5 14 0 19 -2 13 -5z m646 -40 c-8 -14 -24 -29 -36 -34 -24 -9 -31 -29 -10
-29 6 0 25 -11 41 -23 21 -17 27 -29 22 -42 -6 -16 -11 -15 -44 17 -20 20 -52
39 -69 43 -29 6 -33 4 -33 -15 0 -14 -4 -19 -12 -14 -8 5 -9 2 -5 -10 5 -13 2
-17 -10 -14 -21 4 -29 28 -9 28 26 0 36 31 18 57 -10 17 -12 27 -5 34 17 17
48 6 51 -19 4 -27 16 -28 42 -2 11 11 27 20 36 20 11 0 14 5 10 17 -4 9 -1 20
6 24 19 12 23 -9 7 -38z m-79 7 c0 -5 -2 -10 -4 -10 -3 0 -8 5 -11 10 -3 6 -1
10 4 10 6 0 11 -4 11 -10z m470 1 c0 -18 -22 -71 -30 -71 -18 0 -22 22 -10 51
11 26 40 41 40 20z m-286 -23 c3 -13 1 -27 -4 -32 -12 -12 -15 -8 -24 27 -8
34 19 39 28 5z m-58 -24 c-9 -6 -16 -14 -16 -17 0 -4 21 -27 47 -52 44 -44 52
-64 18 -51 -9 3 -22 20 -28 36 -6 17 -16 30 -22 30 -7 0 -22 11 -35 25 -13 14
-18 25 -12 25 7 0 12 6 12 14 0 19 22 26 38 13 11 -9 11 -13 -2 -23z m504 -10
c0 -8 -4 -12 -10 -9 -5 3 -10 13 -10 21 0 8 5 12 10 9 6 -3 10 -13 10 -21z
m-820 6 c0 -5 -11 -9 -24 -8 -14 1 -22 6 -20 10 7 12 44 10 44 -2z m914 -11
c-6 -11 -24 -2 -24 11 0 5 7 7 15 4 8 -4 12 -10 9 -15z m-204 -14 c11 -13 10
-14 -4 -9 -9 3 -16 10 -16 15 0 13 6 11 20 -6z m-125 -45 c10 -19 12 -30 4
-30 -14 0 -49 42 -42 52 9 16 23 7 38 -22z m235 -5 c-9 -11 -16 -13 -23 -6 -7
7 -6 15 3 26 9 11 16 13 23 6 7 -7 6 -15 -3 -26z m-330 4 c0 -16 5 -20 19 -16
27 7 37 -24 14 -40 -15 -11 -21 -10 -41 11 -17 17 -22 30 -17 45 8 27 25 27
25 0z m203 -3 c3 -8 3 -17 0 -20 -8 -7 -43 12 -43 24 0 15 37 12 43 -4z m-459
-22 c9 -22 8 -24 -9 -24 -8 0 -15 9 -15 20 0 24 15 27 24 4z m124 -52 c4 -25
-16 -30 -24 -7 -4 10 -13 13 -25 10 -18 -6 -27 13 -13 27 13 13 59 -9 62 -30z
m277 28 c4 -6 10 -8 15 -5 10 6 26 -14 33 -42 6 -28 -4 -30 -23 -3 -8 11 -22
20 -31 20 -9 0 -19 6 -22 14 -9 23 15 37 28 16z m239 -27 c3 -8 3 -20 0 -25
-8 -12 -34 18 -34 39 0 16 27 6 34 -14z m-224 -81 c0 -7 7 -12 16 -10 24 4 43
-30 24 -42 -22 -14 -40 -12 -40 3 0 8 -9 22 -20 32 -11 10 -20 24 -20 32 0 7
-9 13 -19 13 -21 0 -37 32 -26 51 8 12 85 -59 85 -79z m-225 37 c0 -15 -7 -25
-17 -27 -13 -3 -18 3 -18 21 0 13 3 27 7 31 13 12 28 -1 28 -25z m-180 1 c-3
-5 -12 -10 -18 -10 -7 0 -6 4 3 10 19 12 23 12 15 0z m-1145 -10 c0 -5 -4 -10
-10 -10 -5 0 -10 5 -10 10 0 6 5 10 10 10 6 0 10 -4 10 -10z m228 -21 c2 -13
10 -28 18 -32 8 -4 14 -17 14 -28 0 -11 -5 -17 -10 -14 -12 8 -50 80 -50 95 0
22 25 3 28 -21z m-53 -22 c7 -7 4 -8 -10 -2 -11 4 -26 8 -32 8 -7 0 -13 4 -13
9 0 11 41 0 55 -15z m1538 2 c4 -16 3 -18 -9 -8 -16 13 -19 29 -5 29 5 0 11
-9 14 -21z m-1868 1 c3 -5 1 -10 -4 -10 -6 0 -11 5 -11 10 0 6 2 10 4 10 3 0
8 -4 11 -10z m495 -4 c0 -8 -4 -17 -9 -21 -12 -7 -24 12 -16 25 9 15 25 12 25
-4z m1044 -12 c9 -22 8 -24 -9 -18 -8 4 -15 12 -15 20 0 19 16 18 24 -2z m104
-12 c2 -12 14 -30 28 -41 27 -21 32 -41 10 -41 -13 0 -66 81 -66 102 0 19 25
1 28 -20z m-1698 5 c0 -14 -20 -37 -32 -37 -12 0 -10 24 4 38 16 16 28 15 28
-1z m214 -2 c3 -9 0 -15 -8 -15 -8 0 -16 7 -20 15 -3 9 0 15 8 15 8 0 16 -7
20 -15z m466 11 c0 -11 -19 -15 -25 -6 -3 5 1 10 9 10 9 0 16 -2 16 -4z m-532
-24 c2 -7 -3 -12 -12 -12 -9 0 -16 7 -16 16 0 17 22 14 28 -4z m202 -14 c0
-13 -23 -5 -28 10 -2 7 2 10 12 6 9 -3 16 -11 16 -16z m55 11 c10 -15 -1 -23
-20 -15 -9 3 -13 10 -10 16 8 13 22 13 30 -1z m96 -16 c-8 -15 -10 -15 -11 -2
0 17 10 32 18 25 2 -3 -1 -13 -7 -23z m85 -31 c-4 -3 -11 -1 -17 5 -8 8 -7 18
3 34 l13 24 3 -28 c2 -16 1 -31 -2 -35z m1264 42 c0 -2 -7 -4 -15 -4 -8 0 -15
4 -15 10 0 5 7 7 15 4 8 -4 15 -8 15 -10z m-1072 -17 c2 -10 -3 -17 -12 -17
-9 0 -16 2 -16 4 0 2 -3 12 -6 21 -5 13 -2 16 12 13 10 -2 20 -11 22 -21z
m-715 -4 c-7 -2 -19 -2 -25 0 -7 3 -2 5 12 5 14 0 19 -2 13 -5z m804 -8 c3 -9
3 -19 -1 -22 -8 -9 -37 18 -30 28 8 14 24 11 31 -6z m727 9 c18 -7 21 -30 6
-39 -13 -8 -40 13 -40 31 0 15 10 17 34 8z m274 -11 c-4 -22 -22 -20 -26 1 -2
10 3 16 13 16 10 0 15 -7 13 -17z m-73 -13 c17 0 27 -27 14 -36 -14 -8 -25 5
-33 36 -3 14 -3 19 0 13 3 -7 12 -13 19 -13z m-1905 0 c0 -5 -4 -10 -9 -10 -6
0 -13 5 -16 10 -3 6 1 10 9 10 9 0 16 -4 16 -10z m820 0 c0 -5 -4 -10 -10 -10
-5 0 -10 5 -10 10 0 6 5 10 10 10 6 0 10 -4 10 -10z m-670 -15 c0 -8 -4 -15
-10 -15 -5 0 -10 7 -10 15 0 8 5 15 10 15 6 0 10 -7 10 -15z m-275 -5 c11 -17
-5 -32 -21 -19 -7 6 -11 15 -8 20 7 12 21 11 29 -1z m61 -1 c10 -17 -13 -36
-27 -22 -12 12 -4 33 11 33 5 0 12 -5 16 -11z m44 -25 c0 -8 -7 -14 -15 -14
-15 0 -21 21 -9 33 10 9 24 -2 24 -19z m1052 4 c-7 -7 -12 -8 -12 -2 0 14 12
26 19 19 2 -3 -1 -11 -7 -17z m711 -1 c3 -7 -1 -24 -8 -37 l-13 -25 -7 27
c-10 38 15 69 28 35z m247 -13 c0 -18 -8 -18 -26 0 -19 20 -18 25 6 19 11 -3
20 -12 20 -19z m-2186 -1 c-20 -14 -36 -13 -41 3 -2 6 11 11 28 11 29 0 30 -1
13 -14z m1286 -2 c0 -6 -4 -13 -10 -16 -5 -3 -10 1 -10 9 0 9 5 16 10 16 6 0
10 -4 10 -9z m565 -1 c3 -6 -1 -7 -9 -4 -18 7 -21 14 -7 14 6 0 13 -4 16 -10z
m223 -13 c2 -10 -3 -17 -11 -17 -16 0 -30 24 -19 34 10 10 27 1 30 -17z m62
-7 c0 -11 -4 -20 -9 -20 -14 0 -23 18 -16 30 10 17 25 11 25 -10z m-772 -36
c-10 -10 -28 6 -28 24 0 15 1 15 17 -1 9 -9 14 -19 11 -23z m-540 0 c82 -17
228 -62 287 -90 141 -66 292 -194 389 -331 42 -59 126 -251 126 -288 0 -12 9
-66 21 -121 17 -82 20 -119 15 -214 -6 -118 -4 -112 -92 -354 -22 -60 -52
-104 -136 -195 -88 -96 -141 -137 -253 -193 -148 -75 -295 -102 -468 -87 -213
18 -353 86 -493 239 -102 112 -143 187 -170 314 -29 130 -11 261 60 435 44
109 173 240 281 286 130 55 292 65 400 25 123 -47 209 -120 262 -224 33 -65
37 -80 41 -173 l4 -102 -37 -67 c-78 -140 -143 -184 -271 -184 -83 0 -100 6
-156 58 -33 31 -38 80 -10 106 16 14 33 15 103 10 74 -5 88 -3 117 16 47 29
65 78 60 165 -6 117 -52 171 -186 216 -96 32 -190 25 -267 -21 -94 -55 -165
-133 -197 -215 -37 -95 -43 -161 -25 -273 17 -103 44 -156 127 -252 98 -113
251 -170 455 -170 94 0 122 4 196 29 127 43 168 68 264 159 76 73 92 95 130
175 63 136 79 221 70 375 -9 161 -31 244 -97 365 -90 164 -209 269 -396 347
-114 49 -200 63 -362 63 -133 0 -154 -2 -253 -31 -111 -32 -190 -73 -286 -146
-31 -23 -73 -55 -94 -70 -20 -15 -56 -53 -79 -84 -23 -31 -56 -73 -74 -92 -75
-81 -130 -219 -166 -420 -18 -103 -7 -330 21 -420 33 -104 65 -192 91 -240 71
-138 234 -326 320 -370 24 -12 66 -37 92 -55 64 -44 273 -113 379 -125 46 -5
98 -14 114 -18 50 -15 446 17 486 38 13 7 49 -1 133 -29 138 -47 311 -75 403
-65 35 3 63 10 63 14 0 4 -17 19 -37 33 -21 15 -63 47 -93 71 -30 25 -79 61
-108 82 -50 34 -53 38 -38 53 12 11 34 16 76 16 52 0 63 -3 92 -31 18 -18 57
-44 86 -58 29 -15 75 -43 101 -61 112 -81 274 -130 391 -120 92 8 110 13 110
30 0 15 -88 98 -167 158 -29 22 -53 43 -53 47 0 5 7 16 16 25 13 12 27 14 63
9 78 -12 118 -31 214 -102 155 -117 178 -127 342 -157 105 -20 275 -20 275 -1
0 12 -62 64 -190 158 -120 89 -207 127 -340 150 -38 7 -70 15 -70 18 0 3 30
19 67 35 167 76 273 131 333 175 93 68 154 96 252 115 94 19 218 14 218 -9 0
-6 -50 -32 -112 -56 -62 -25 -124 -54 -138 -66 -14 -12 -52 -36 -85 -54 -33
-18 -72 -41 -87 -52 -15 -10 -52 -30 -82 -44 -45 -21 -56 -30 -56 -49 0 -26
11 -31 134 -55 45 -9 82 -28 165 -84 58 -40 126 -84 151 -99 68 -38 236 -93
313 -102 70 -7 247 11 247 26 0 11 -235 176 -295 207 -55 28 -185 77 -252 95
-51 14 -56 33 -10 42 33 7 219 110 317 176 135 90 239 126 379 131 95 3 116
-10 53 -35 -21 -8 -44 -22 -51 -31 -8 -9 -20 -16 -28 -16 -21 0 -111 -48 -167
-90 -62 -45 -146 -92 -206 -116 -85 -33 -109 -74 -42 -74 83 0 167 -34 320
-129 111 -68 274 -144 360 -167 76 -20 204 -18 285 6 85 24 159 59 155 72 -2
6 -44 23 -93 38 -50 15 -151 57 -225 93 -151 73 -196 86 -322 94 -49 3 -88 9
-88 13 0 4 26 20 58 36 95 50 178 110 280 207 103 97 259 213 299 223 12 4 30
4 38 0 13 -5 11 -12 -12 -44 -31 -42 -147 -172 -260 -292 -40 -42 -73 -82 -73
-88 0 -14 41 -32 74 -32 13 0 58 -18 102 -39 56 -28 106 -44 173 -55 111 -19
244 -21 292 -5 79 27 246 182 308 286 49 83 47 102 -7 74 -79 -40 -421 -131
-547 -146 l-60 -7 40 33 c126 103 172 173 236 359 17 52 35 98 38 102 3 4 19
9 35 12 16 3 39 15 52 27 13 12 26 20 29 17 9 -9 -53 -223 -80 -280 -26 -54
-33 -98 -15 -98 20 0 139 58 187 91 26 18 88 67 137 108 97 82 132 137 123
195 -3 17 -7 40 -9 50 -2 11 -16 31 -31 46 -26 23 -29 32 -30 95 -1 83 15 315
20 298 3 -7 11 -13 19 -13 8 0 19 -12 24 -26 6 -14 30 -57 55 -95 88 -137 90
-141 90 -269 0 -99 -4 -128 -29 -205 -15 -49 -35 -112 -43 -140 -21 -67 -67
-157 -112 -219 -20 -28 -44 -68 -53 -88 -15 -33 -176 -228 -223 -271 -21 -19
-242 -167 -249 -167 -3 0 -26 -10 -53 -21 -188 -84 -296 -104 -533 -99 -102 2
-210 3 -240 3 -30 0 -109 0 -175 0 -66 0 -131 -1 -145 -1 -78 -3 -2235 -15
-2491 -14 -361 1 -559 10 -614 28 -22 7 -58 16 -80 20 -22 4 -83 24 -135 45
-52 20 -113 42 -135 48 -33 9 -166 103 -185 130 -3 4 -26 21 -51 39 -63 43
-118 102 -189 205 -147 212 -223 428 -230 647 -1 47 -3 101 -5 120 -3 53 32
272 54 332 80 218 109 277 180 363 22 27 41 53 41 56 0 4 49 51 108 106 92 83
129 108 239 165 253 131 495 171 741 122z m-988 -14 c0 -5 -4 -10 -10 -10 -5
0 -10 5 -10 10 0 6 5 10 10 10 6 0 10 -4 10 -10z m36 -17 c-10 -10 -19 5 -10
18 6 11 8 11 12 0 2 -7 1 -15 -2 -18z m94 17 c0 -5 -2 -10 -4 -10 -3 0 -8 5
-11 10 -3 6 -1 10 4 10 6 0 11 -4 11 -10z m2192 -22 c-9 -9 -12 -7 -12 12 0
19 3 21 12 12 9 -9 9 -15 0 -24z m-2372 3 c0 -12 -29 -35 -36 -28 -7 6 17 36
29 37 4 0 7 -4 7 -9z m2210 -11 c15 -28 1 -49 -17 -25 -15 22 -17 45 -3 45 5
0 14 -9 20 -20z m136 -7 c-7 -7 -26 7 -26 19 0 6 6 6 15 -2 9 -7 13 -15 11
-17z m-771 7 c3 -5 -1 -10 -9 -10 -9 0 -16 5 -16 10 0 6 4 10 9 10 6 0 13 -4
16 -10z m91 -27 c-5 -12 -10 -13 -18 -5 -8 8 -8 15 3 28 15 18 25 4 15 -23z
m752 19 c2 -7 -3 -12 -12 -12 -9 0 -16 7 -16 16 0 17 22 14 28 -4z m-2503 -22
c-3 -5 -10 -10 -16 -10 -5 0 -9 5 -9 10 0 6 7 10 16 10 8 0 12 -4 9 -10z
m2383 -29 c3 -16 -1 -22 -10 -19 -7 3 -15 15 -16 27 -3 16 1 22 10 19 7 -3 15
-15 16 -27z m-2350 -25 c3 -12 -1 -17 -10 -14 -7 3 -15 13 -16 22 -3 12 1 17
10 14 7 -3 15 -13 16 -22z m2162 20 c0 -2 -7 -6 -15 -10 -8 -3 -15 -1 -15 4 0
6 7 10 15 10 8 0 15 -2 15 -4z m320 -26 c0 -5 -4 -10 -10 -10 -5 0 -10 5 -10
10 0 6 5 10 10 10 6 0 10 -4 10 -10z m1168 -47 c60 -45 132 -156 167 -258 13
-39 43 -203 45 -247 0 -15 37 -8 57 11 11 11 30 36 43 56 21 33 23 35 35 18
53 -76 95 -233 95 -351 0 -124 -34 -220 -103 -294 -33 -37 -37 -38 -100 -38
l-66 0 24 53 c14 28 25 59 24 67 0 8 -6 2 -12 -15 -48 -121 -64 -128 -265
-119 -90 4 -163 11 -171 18 -8 6 -25 34 -38 61 -17 34 -23 40 -18 21 3 -17 16
-43 27 -59 l21 -30 -78 5 c-75 5 -81 7 -108 39 -16 19 -43 62 -59 97 -26 55
-30 73 -30 150 1 155 41 245 193 432 88 109 140 182 152 213 4 10 11 16 16 13
5 -3 15 2 22 12 13 16 13 16 -5 2 -18 -14 -19 -13 -14 10 4 21 33 136 44 178
4 15 47 -4 102 -45z m-1268 38 c0 -12 -20 -25 -27 -18 -7 7 6 27 18 27 5 0 9
-4 9 -9z m-2450 -11 c0 -5 -7 -10 -16 -10 -8 0 -12 5 -9 10 3 6 10 10 16 10 5
0 9 -4 9 -10z m1820 -20 c0 -5 -4 -10 -10 -10 -5 0 -10 5 -10 10 0 6 5 10 10
10 6 0 10 -4 10 -10z m571 -7 c13 -15 11 -16 -11 -10 -14 4 -29 7 -33 7 -5 0
-5 5 -2 10 9 15 31 12 46 -7z m3153 -18 c-6 -16 -24 -21 -24 -7 0 11 11 22 21
22 5 0 6 -7 3 -15z m-5584 -34 c0 -12 -20 -25 -27 -18 -7 7 6 27 18 27 5 0 9
-4 9 -9z m2050 -52 c0 -18 -2 -19 -15 -9 -15 12 -12 30 6 30 5 0 9 -10 9 -21z
m-2080 -15 c0 -16 -16 -19 -25 -4 -8 13 4 32 16 25 5 -4 9 -13 9 -21z m2480 5
c0 -14 -17 -10 -23 5 -4 10 -1 13 9 9 7 -3 14 -9 14 -14z m-1410 -55 c0 -8 -4
-14 -9 -14 -11 0 -22 26 -14 34 9 9 23 -3 23 -20z m270 11 c0 -8 -4 -15 -10
-15 -5 0 -10 7 -10 15 0 8 5 15 10 15 6 0 10 -7 10 -15z m-195 -4 c3 -5 1 -12
-4 -15 -5 -3 -11 1 -15 9 -6 16 9 21 19 6z m945 -11 c0 -11 -4 -20 -10 -20 -5
0 -10 9 -10 20 0 11 5 20 10 20 6 0 10 -9 10 -20z m-1210 -16 c0 -9 -5 -14
-12 -12 -18 6 -21 28 -4 28 9 0 16 -7 16 -16z m-60 -20 c0 -16 -16 -19 -25 -4
-8 13 4 32 16 25 5 -4 9 -13 9 -21z m4237 -10 c-9 -9 -28 6 -21 18 4 6 10 6
17 -1 6 -6 8 -13 4 -17z m-5122 6 c11 -17 -5 -32 -21 -19 -7 6 -11 15 -8 20 7
12 21 11 29 -1z m1323 -14 c3 -12 -1 -17 -10 -14 -7 3 -15 13 -16 22 -3 12 1
17 10 14 7 -3 15 -13 16 -22z m76 8 c3 -9 6 -23 6 -31 0 -14 -3 -14 -20 2 -11
10 -20 24 -20 32 0 18 27 16 34 -3z m806 6 c0 -5 -2 -10 -4 -10 -3 0 -8 5 -11
10 -3 6 -1 10 4 10 6 0 11 -4 11 -10z m-2270 -26 c0 -16 -16 -19 -25 -4 -8 13
4 32 16 25 5 -4 9 -13 9 -21z m850 -3 c0 -6 -4 -13 -10 -16 -5 -3 -10 1 -10 9
0 9 5 16 10 16 6 0 10 -4 10 -9z m1388 -8 c-4 -22 -22 -20 -26 1 -2 10 3 16
13 16 10 0 15 -7 13 -17z m-1328 -7 c0 -8 -5 -18 -11 -22 -14 -8 -33 11 -25
25 10 16 36 13 36 -3z m-181 -27 c-19 -11 -24 -3 -8 14 8 9 16 11 18 5 2 -6
-3 -14 -10 -19z m1566 1 c3 -5 1 -10 -4 -10 -6 0 -11 5 -11 10 0 6 2 10 4 10
3 0 8 -4 11 -10z m-2255 -4 c0 -3 -4 -8 -10 -11 -5 -3 -10 -1 -10 4 0 6 5 11
10 11 6 0 10 -2 10 -4z m2230 -11 c0 -8 -4 -15 -10 -15 -5 0 -10 7 -10 15 0 8
5 15 10 15 6 0 10 -7 10 -15z m-1500 -35 c0 -5 -7 -7 -15 -4 -8 4 -15 8 -15
10 0 2 7 4 15 4 8 0 15 -4 15 -10z m1580 -6 c0 -9 -5 -14 -12 -12 -18 6 -21
28 -4 28 9 0 16 -7 16 -16z m-66 -13 c3 -5 0 -11 -8 -14 -15 -6 -26 1 -26 15
0 11 27 10 34 -1z m-664 -22 c0 -6 -4 -7 -10 -4 -5 3 -10 11 -10 16 0 6 5 7
10 4 6 -3 10 -11 10 -16z m-974 -4 c7 -18 -14 -47 -27 -39 -5 3 -9 16 -9 30 0
27 27 34 36 9z m1094 0 c0 -8 -7 -15 -15 -15 -8 0 -15 7 -15 15 0 8 7 15 15
15 8 0 15 -7 15 -15z m3450 5 c0 -5 -2 -10 -4 -10 -3 0 -8 5 -11 10 -3 6 -1
10 4 10 6 0 11 -4 11 -10z m310 -31 c0 -11 -4 -17 -10 -14 -5 3 -10 13 -10 21
0 8 5 14 10 14 6 0 10 -9 10 -21z m-5570 2 c0 -6 -4 -13 -10 -16 -5 -3 -10 1
-10 9 0 9 5 16 10 16 6 0 10 -4 10 -9z m2390 -21 c0 -4 -6 -13 -14 -19 -17
-14 -31 2 -22 24 5 15 36 10 36 -5z m64 -32 c-3 -4 -20 -10 -39 -14 -19 -3
-35 -11 -35 -17 0 -6 -3 -7 -7 -4 -4 4 8 23 27 42 30 31 34 33 46 17 7 -9 10
-20 8 -24z m-693 19 c-1 -12 -15 -9 -19 4 -3 6 1 10 8 8 6 -3 11 -8 11 -12z
m46 -13 c-9 -9 -28 6 -21 18 4 6 10 6 17 -1 6 -6 8 -13 4 -17z m-1192 -33 c-9
-16 -25 -3 -18 15 4 10 9 12 15 6 6 -6 7 -15 3 -21z m73 17 c-6 -18 -28 -21
-28 -4 0 9 7 16 16 16 9 0 14 -5 12 -12z m1115 -39 c-17 -17 -37 -1 -22 17 8
10 15 12 23 4 7 -7 7 -13 -1 -21z m625 -7 c4 -14 -34 -16 -42 -3 -6 10 13 21
28 17 6 -1 12 -8 14 -14z m-1808 -26 c0 -8 -4 -17 -9 -21 -12 -7 -24 12 -16
25 9 15 25 12 25 -4z m-710 -11 c0 -8 -4 -15 -10 -15 -5 0 -10 7 -10 15 0 8 5
15 10 15 6 0 10 -7 10 -15z m2585 -24 c-10 -16 -25 -3 -25 22 0 20 1 20 16 5
9 -9 13 -21 9 -27z m2926 6 c-8 -8 -11 -7 -11 4 0 20 13 34 18 19 3 -7 -1 -17
-7 -23z m-4904 8 c7 -20 -2 -29 -21 -22 -9 4 -13 13 -10 22 8 19 23 19 31 0z
m47 -1 c11 -28 6 -39 -9 -20 -8 11 -15 23 -15 28 0 14 18 9 24 -8z m1311 5
c12 -19 -5 -23 -22 -6 -16 16 -16 17 -1 17 9 0 20 -5 23 -11z m542 -19 c-13
-22 -23 -25 -32 -11 -7 12 24 43 36 36 5 -3 3 -15 -4 -25z m-2431 -31 c10 -17
-13 -36 -27 -22 -12 12 -4 33 11 33 5 0 12 -5 16 -11z m2494 -19 c0 -11 -60
-54 -66 -47 -8 8 48 67 57 61 5 -3 9 -9 9 -14z m-2460 0 c0 -5 -5 -10 -11 -10
-5 0 -7 5 -4 10 3 6 8 10 11 10 2 0 4 -4 4 -10z m495 -15 c0 -10 -6 -20 -12
-22 -8 -3 -13 5 -13 22 0 17 5 25 13 23 6 -3 12 -13 12 -23z m1371 -10 c-3 -9
-14 -15 -23 -13 -24 4 -29 35 -6 40 24 6 37 -7 29 -27z m-1921 -37 c-10 -49
-44 -115 -62 -122 -11 -5 -13 -2 -8 11 4 10 12 41 17 68 13 71 15 75 38 75 19
0 21 -4 15 -32z m-110 13 c3 -5 1 -12 -4 -15 -5 -3 -11 1 -15 9 -6 16 9 21 19
6z m610 -11 c-3 -5 -12 -10 -18 -10 -7 0 -6 4 3 10 19 12 23 12 15 0z m2035
-6 c0 -10 -7 -14 -22 -12 -32 5 -35 28 -4 28 17 0 26 -5 26 -16z m-1965 -15
c-8 -12 -45 -12 -45 0 0 10 30 20 43 14 4 -3 5 -9 2 -14z m1885 11 c0 -5 -4
-10 -10 -10 -5 0 -10 5 -10 10 0 6 5 10 10 10 6 0 10 -4 10 -10z m-532 -39 c3
-8 -1 -12 -9 -9 -7 2 -15 10 -17 17 -3 8 1 12 9 9 7 -2 15 -10 17 -17z m593
-1 l24 -21 -35 7 c-43 8 -52 13 -45 25 10 15 31 10 56 -11z m-2613 -8 c9 -6 6
-14 -13 -32 -20 -18 -25 -20 -25 -8 0 21 10 48 19 48 3 0 12 -4 19 -8z m599
-29 c-9 -9 -19 -14 -23 -11 -10 10 6 28 24 28 15 0 15 -1 -1 -17z m792 -20 c0
-16 -3 -22 -6 -15 -4 10 -8 10 -21 0 -11 -9 -10 -5 3 14 25 34 25 34 24 1z
m-1299 -12 c0 -22 -16 -36 -24 -22 -8 12 3 41 15 41 5 0 9 -9 9 -19z m576 -20
c-10 -16 -23 -14 -30 5 -9 25 4 38 21 21 9 -8 12 -20 9 -26z m1398 4 c-4 -8
-10 -13 -15 -10 -4 3 -6 12 -3 20 4 8 10 13 15 10 4 -3 6 -12 3 -20z m521 5
c3 -5 -1 -10 -9 -10 -9 0 -16 5 -16 10 0 6 4 10 9 10 6 0 13 -4 16 -10z
m-2615 -25 c0 -9 -6 -12 -15 -9 -8 4 -15 10 -15 15 0 5 7 9 15 9 8 0 15 -7 15
-15z m630 -15 c0 -13 -28 -25 -38 -16 -3 4 0 11 8 16 20 13 30 12 30 0z m-554
-16 c-3 -9 -6 -18 -6 -20 0 -2 -7 -4 -15 -4 -18 0 -20 26 -2 33 23 10 29 7 23
-9z m604 -12 c0 -25 -36 -59 -42 -40 -5 15 20 58 33 58 5 0 9 -8 9 -18z m-125
-22 c3 -5 1 -10 -4 -10 -6 0 -11 5 -11 10 0 6 2 10 4 10 3 0 8 -4 11 -10z
m-555 -12 c0 -5 8 -7 18 -4 24 8 50 -10 36 -24 -7 -7 -20 -6 -42 5 -36 19 -48
32 -27 32 8 0 15 -4 15 -9z m620 3 c0 -5 -3 -17 -6 -25 -5 -13 -9 -14 -20 -5
-11 9 -11 15 -3 25 13 16 29 18 29 5z m565 -21 c3 -6 -1 -13 -10 -16 -19 -8
-30 0 -20 15 8 14 22 14 30 1z m1424 -4 c9 -11 9 -16 0 -21 -10 -7 -28 10 -29
28 0 12 17 8 29 -7z m-2659 -16 c0 -5 -2 -10 -4 -10 -3 0 -8 5 -11 10 -3 6 -1
10 4 10 6 0 11 -4 11 -10z m1276 -37 c-12 -12 -29 15 -21 34 7 17 8 16 18 -5
5 -12 7 -25 3 -29z m-1208 15 c18 -18 15 -28 -8 -28 -11 0 -20 2 -20 4 0 2 -3
11 -6 20 -7 19 16 22 34 4z m76 -10 c14 -55 -5 -68 -23 -17 -14 40 -14 39 3
39 7 0 16 -10 20 -22z m517 15 c9 -76 7 -103 -7 -103 -11 0 -13 6 -9 20 4 12
0 31 -9 45 -9 13 -16 29 -16 35 0 11 40 14 41 3z m53 -14 c-3 -5 -10 -7 -15
-3 -5 3 -7 10 -3 15 3 5 10 7 15 3 5 -3 7 -10 3 -15z m2026 11 c0 -5 -5 -10
-11 -10 -5 0 -7 5 -4 10 3 6 8 10 11 10 2 0 4 -4 4 -10z m-680 -19 c0 -12 -20
-25 -27 -18 -7 7 6 27 18 27 5 0 9 -4 9 -9z m-2021 -34 c11 -14 6 -27 -10 -27
-5 0 -13 9 -19 20 -8 16 -8 20 3 20 8 0 20 -6 26 -13z m2656 -27 c-5 -8 -11
-8 -17 -2 -6 6 -7 16 -3 22 5 8 11 8 17 2 6 -6 7 -16 3 -22z m-65 0 c-11 -20
-30 -28 -30 -12 0 11 22 32 32 32 5 0 4 -9 -2 -20z m-2525 -8 c0 -18 -20 -15
-23 4 -3 10 1 15 10 12 7 -3 13 -10 13 -16z m45 -7 c0 -8 -7 -15 -15 -15 -16
0 -20 12 -8 23 11 12 23 8 23 -8z m1130 -11 c0 -16 -16 -19 -25 -4 -8 13 4 32
16 25 5 -4 9 -13 9 -21z m-1220 -12 c0 -14 -11 -21 -26 -15 -21 8 -17 23 6 23
11 0 20 -4 20 -8z m118 -21 c3 -8 -1 -12 -9 -9 -7 2 -15 10 -17 17 -3 8 1 12
9 9 7 -2 15 -10 17 -17z m515 -17 c-4 -10 -9 -12 -15 -6 -12 12 -1 35 12 27 5
-3 6 -13 3 -21z m1299 11 c0 -5 -5 -11 -11 -13 -6 -2 -11 4 -11 13 0 9 5 15
11 13 6 -2 11 -8 11 -13z m618 -5 c-12 -22 -25 -26 -35 -10 -9 15 4 30 26 30
17 0 18 -3 9 -20z m60 16 c0 -2 -3 -11 -6 -20 -9 -23 -24 -20 -24 4 0 11 7 20
15 20 8 0 15 -2 15 -4z m3320 -28 c0 -18 -2 -20 -9 -8 -6 8 -7 18 -5 22 9 14
14 9 14 -14z m-5880 -3 c0 -9 -6 -12 -15 -9 -8 4 -15 10 -15 15 0 5 7 9 15 9
8 0 15 -7 15 -15z m1165 6 c3 -5 1 -12 -5 -16 -5 -3 -10 1 -10 9 0 18 6 21 15
7z m-1215 -41 c0 -5 -9 -10 -21 -10 -11 0 -17 5 -14 10 3 6 13 10 21 10 8 0
14 -4 14 -10z m2560 3 c0 -10 -32 -43 -42 -43 -14 0 -9 22 10 36 19 15 32 18
32 7z m-640 -18 c0 -8 -4 -15 -10 -15 -5 0 -10 7 -10 15 0 8 5 15 10 15 6 0
10 -7 10 -15z m-1826 -36 c-3 -5 -10 -7 -15 -3 -5 3 -7 10 -3 15 3 5 10 7 15
3 5 -3 7 -10 3 -15z m1258 -58 c-4 -11 -7 -10 -14 2 -4 8 -5 23 -1 33 6 16 7
16 13 -2 4 -10 5 -25 2 -33z m-1232 3 c0 -18 -17 -26 -40 -19 -25 8 -26 31 -3
44 20 11 43 -3 43 -25z m2387 -8 c-4 -9 -11 -16 -17 -16 -11 0 -14 33 -3 43
11 11 26 -10 20 -27z m4369 -3 c-11 -11 -19 6 -11 24 8 17 8 17 12 0 3 -10 2
-21 -1 -24z m87 12 c-7 -21 -12 -19 -10 4 0 11 5 18 9 15 4 -3 5 -11 1 -19z
m-6323 6 c0 -12 -20 -25 -27 -18 -7 7 6 27 18 27 5 0 9 -4 9 -9z m1948 -8 c6
-19 -25 -16 -32 3 -4 11 -1 14 11 12 9 -2 18 -9 21 -15z m702 -16 c0 -20 -9
-25 -31 -20 -18 5 -19 6 -2 19 23 17 33 17 33 1z m362 -29 c-16 -16 -37 4 -28
28 6 16 8 16 23 1 13 -13 15 -19 5 -29z m-2962 -2 c-14 -14 -24 0 -16 21 6 15
8 15 16 3 6 -9 5 -19 0 -24z m1080 13 c0 -5 -9 -9 -20 -9 -19 0 -26 11 -14 23
8 8 34 -3 34 -14z m1604 0 c-3 -5 -10 -7 -15 -3 -5 3 -7 10 -3 15 3 5 10 7 15
3 5 -3 7 -10 3 -15z m1093 -5 c-9 -9 -28 6 -21 18 4 6 10 6 17 -1 6 -6 8 -13
4 -17z m-2937 8 c0 -13 -12 -22 -22 -16 -10 6 -1 24 13 24 5 0 9 -4 9 -8z
m1940 -2 c0 -5 7 -10 15 -10 8 0 15 -2 15 -4 0 -2 3 -12 7 -22 4 -11 3 -15 -4
-11 -6 4 -13 4 -16 0 -2 -5 -2 -2 -1 5 2 7 -7 12 -21 12 -24 0 -33 18 -18 33
10 10 23 8 23 -3z m248 -34 c-10 -18 -11 -18 -20 -2 -7 12 -6 22 3 32 17 21
31 -3 17 -30z m-3658 19 c0 -9 -6 -12 -15 -9 -8 4 -15 10 -15 15 0 5 7 9 15 9
8 0 15 -7 15 -15z m4570 -1 c0 -8 -4 -12 -10 -9 -5 3 -10 10 -10 16 0 5 5 9
10 9 6 0 10 -7 10 -16z m-4480 -39 c0 -7 -9 -17 -20 -20 -12 -4 -17 -11 -13
-18 7 -11 20 -105 26 -179 1 -15 -2 -28 -8 -28 -5 0 -10 10 -10 23 0 18 -5 21
-27 19 -19 -2 -28 1 -28 11 0 20 11 28 24 17 14 -11 13 62 -2 100 -14 36 25
109 50 94 4 -3 8 -11 8 -19z m555 -23 c0 -18 -20 -15 -23 4 -3 10 1 15 10 12
7 -3 13 -10 13 -16z m1751 7 c10 -17 -13 -36 -27 -22 -12 12 -4 33 11 33 5 0
12 -5 16 -11z m-2396 -29 c0 -11 -42 -31 -49 -24 -2 2 2 10 9 19 14 17 40 20
40 5z m3335 -55 c0 -5 -38 -22 -85 -37 -47 -15 -94 -32 -105 -37 -61 -29 -137
-61 -147 -61 -6 0 -39 -15 -73 -34 -60 -33 -200 -86 -228 -86 -7 0 -22 -9 -32
-20 -16 -18 -29 -20 -84 -18 -64 3 -93 21 -54 35 10 3 25 11 33 18 8 6 31 18
50 25 19 7 49 23 66 36 16 12 71 42 121 67 50 25 112 57 138 72 83 49 110 55
260 52 85 -1 140 -6 140 -12z m-3215 -10 c0 -8 -4 -15 -9 -15 -5 0 -11 7 -15
15 -3 9 0 15 9 15 8 0 15 -7 15 -15z m557 -21 c-9 -9 -28 6 -21 18 4 6 10 6
17 -1 6 -6 8 -13 4 -17z m1708 -4 c-5 -8 -11 -8 -17 -2 -6 6 -7 16 -3 22 5 8
11 8 17 2 6 -6 7 -16 3 -22z m-85 -1 c0 -5 -7 -9 -15 -9 -15 0 -20 12 -9 23 8
8 24 -1 24 -14z m1707 -14 c0 -8 -4 -15 -9 -15 -10 0 -11 14 -1 23 9 10 10 9
10 -8z m-4007 -4 c0 -12 -20 -25 -27 -18 -7 7 6 27 18 27 5 0 9 -4 9 -9z m127
-26 c-4 -8 -11 -15 -17 -15 -7 0 -7 6 0 21 13 23 26 19 17 -6z m3848 16 c6
-11 -33 -26 -43 -16 -4 3 0 10 8 15 19 12 27 12 35 1z m-69 -47 c2 -12 -1 -13
-12 -3 -7 6 -11 16 -8 21 7 11 17 3 20 -18z m-1670 -11 c-10 -10 -19 5 -10 18
6 11 8 11 12 0 2 -7 1 -15 -2 -18z m-1476 -3 c-20 -13 -33 -13 -25 0 3 6 14
10 23 10 15 0 15 -2 2 -10z m-565 -9 c7 -12 -12 -24 -25 -16 -11 7 -4 25 10
25 5 0 11 -4 15 -9z m-69 -58 c16 -21 18 -63 4 -63 -13 0 -30 34 -30 59 0 26
9 27 26 4z m1989 7 c-3 -5 -10 -10 -16 -10 -5 0 -9 5 -9 10 0 6 7 10 16 10 8
0 12 -4 9 -10z m-1295 -9 c0 -6 -4 -13 -10 -16 -5 -3 -10 1 -10 9 0 9 5 16 10
16 6 0 10 -4 10 -9z m-761 -37 c-16 -19 -29 -17 -29 4 0 26 11 34 27 21 10 -9
10 -15 2 -25z m131 5 c0 -24 -23 -21 -28 4 -2 10 3 17 12 17 10 0 16 -9 16
-21z m750 -6 c0 -13 -3 -13 -15 -3 -8 7 -12 16 -9 21 8 13 24 1 24 -18z m1090
-38 c0 -8 -4 -15 -10 -15 -5 0 -10 7 -10 15 0 8 5 15 10 15 6 0 10 -7 10 -15z
m-1860 -5 c8 -5 11 -12 8 -16 -10 -9 -38 3 -38 16 0 12 10 13 30 0z m53 -27
c-5 -13 -7 -13 -21 0 -8 8 -11 20 -7 27 10 16 35 -7 28 -27z m797 13 c0 -7 -7
-19 -15 -26 -15 -12 -35 -6 -35 11 0 6 5 7 10 4 6 -3 10 1 10 9 0 9 7 16 15
16 8 0 15 -6 15 -14z m940 4 c0 -5 -4 -10 -9 -10 -6 0 -13 5 -16 10 -3 6 1 10
9 10 9 0 16 -4 16 -10z m230 0 c0 -5 -7 -10 -16 -10 -8 0 -12 5 -9 10 3 6 10
10 16 10 5 0 9 -4 9 -10z m-1944 -97 c-11 -11 -19 6 -11 24 8 17 8 17 12 0 3
-10 2 -21 -1 -24z m1665 4 c-16 -16 -26 0 -10 19 9 11 15 12 17 4 2 -6 -1 -17
-7 -23z m86 27 c-3 -3 -12 -4 -19 -1 -8 3 -5 6 6 6 11 1 17 -2 13 -5z m-1694
-10 c9 -9 -4 -35 -14 -28 -5 3 -9 12 -9 20 0 14 12 19 23 8z m1437 -9 c0 -8
-7 -15 -15 -15 -8 0 -15 7 -15 15 0 8 7 15 15 15 8 0 15 -7 15 -15z m-1520
-12 c-1 -14 -30 -47 -36 -41 -6 7 17 48 28 48 5 0 8 -3 8 -7z m1485 -43 c-3
-5 -10 -10 -16 -10 -5 0 -9 5 -9 10 0 6 7 10 16 10 8 0 12 -4 9 -10z m-1419
-27 c-10 -10 -19 5 -10 18 6 11 8 11 12 0 2 -7 1 -15 -2 -18z m74 -23 c0 -5
-9 -10 -20 -10 -11 0 -20 5 -20 10 0 6 9 10 20 10 11 0 20 -4 20 -10z m20 -46
c0 -16 -26 -43 -42 -44 -3 0 -4 10 0 23 8 35 42 51 42 21z m65 -32 c6 -28 3
-33 -17 -41 -31 -12 -43 -3 -24 18 9 10 13 20 10 24 -3 3 -3 15 1 27 9 27 21
16 30 -28z m1282 2 c-3 -3 -12 -4 -19 -1 -8 3 -5 6 6 6 11 1 17 -2 13 -5z
m4067 -22 c2 -4 0 -14 -5 -22 -8 -13 -10 -13 -18 0 -10 15 -6 30 9 30 5 0 11
-4 14 -8z m732 -11 c-4 -5 -1 -12 4 -14 6 -3 5 -4 -2 -3 -15 3 -23 26 -8 26 6
0 9 -4 6 -9z m-6016 -26 c0 -8 -7 -15 -15 -15 -8 0 -15 7 -15 15 0 8 7 15 15
15 8 0 15 -7 15 -15z m40 -62 c0 -7 -9 -13 -20 -13 -19 0 -26 11 -15 22 10 10
35 4 35 -9z m120 7 c0 -5 -4 -10 -10 -10 -5 0 -10 5 -10 10 0 6 5 10 10 10 6
0 10 -4 10 -10z m5005 -21 c8 -23 -7 -45 -24 -35 -12 8 -15 39 -4 49 12 12 22
7 28 -14z m-5066 -45 c-6 -8 -16 -11 -21 -8 -6 4 -14 1 -18 -6 -5 -9 -9 -9
-14 -1 -4 6 -2 11 4 11 6 0 9 4 5 9 -9 15 28 31 43 19 9 -8 9 -14 1 -24z m-39
-60 c0 -8 -5 -12 -10 -9 -6 4 -8 11 -5 16 9 14 15 11 15 -7z m67 -1 c-9 -9
-19 -14 -23 -11 -10 10 6 28 24 28 15 0 15 -1 -1 -17z m4818 7 c3 -5 -1 -10
-9 -10 -9 0 -16 5 -16 10 0 6 4 10 9 10 6 0 13 -4 16 -10z m239 -21 c-8 -14
-34 -11 -34 4 0 8 3 17 7 20 9 9 34 -13 27 -24z m-4888 -27 c-9 -9 -37 8 -31
18 5 8 11 7 21 -1 8 -6 12 -14 10 -17z m154 -20 c0 -13 -12 -22 -22 -16 -10 6
-1 24 13 24 5 0 9 -4 9 -8z m4705 -2 c-3 -5 -10 -10 -16 -10 -5 0 -9 5 -9 10
0 6 7 10 16 10 8 0 12 -4 9 -10z m-525 -14 c0 -8 -4 -17 -9 -21 -12 -7 -24 12
-16 25 9 15 25 12 25 -4z m328 2 c-6 -18 -28 -21 -28 -4 0 9 7 16 16 16 9 0
14 -5 12 -12z m120 -10 c13 -13 17 -48 5 -48 -12 0 -43 33 -43 47 0 16 22 17
38 1z m-2918 -8 c0 -5 -7 -10 -15 -10 -8 0 -15 5 -15 10 0 6 7 10 15 10 8 0
15 -4 15 -10z m-1790 -10 c12 -8 11 -10 -7 -10 -13 0 -23 5 -23 10 0 13 11 13
30 0z m1950 -15 c0 -14 5 -25 10 -25 17 0 11 -14 -11 -28 -19 -12 -20 -11 -14
7 4 14 2 21 -6 21 -10 0 -10 3 -2 11 6 6 9 18 6 25 -3 8 0 14 6 14 6 0 11 -11
11 -25z m671 -18 c-7 -7 -17 -5 -31 8 -27 24 -15 39 16 18 17 -11 22 -19 15
-26z m489 27 c0 -14 -3 -14 -15 -4 -8 7 -15 14 -15 16 0 2 7 4 15 4 8 0 15 -7
15 -16z m136 5 c10 -17 -13 -36 -27 -22 -12 12 -4 33 11 33 5 0 12 -5 16 -11z
m255 -4 c-1 -15 -24 -12 -29 3 -3 9 2 13 12 10 10 -1 17 -7 17 -13z m62 -19
c-5 -10 -13 -12 -23 -6 -11 7 -12 11 0 25 16 20 36 4 23 -19z m182 5 c-3 -6
-11 -9 -16 -5 -5 3 -16 1 -24 -6 -9 -7 -15 -8 -20 0 -9 15 3 30 19 24 8 -3 17
0 21 6 5 8 11 8 17 2 6 -6 7 -15 3 -21z m638 -7 c-3 -8 -9 -14 -13 -14 -11 0
-21 30 -14 41 9 15 34 -10 27 -27z m52 26 c3 -5 3 -15 -1 -21 -6 -11 -23 6
-24 24 0 10 18 9 25 -3z m-3765 -15 c0 -8 -4 -15 -10 -15 -5 0 -10 7 -10 15 0
8 5 15 10 15 6 0 10 -7 10 -15z m460 -18 c0 -20 -1 -20 -16 -5 -9 9 -13 21 -9
27 10 16 25 3 25 -22z m470 13 c0 -14 -15 -19 -29 -10 -17 10 -5 31 14 23 8
-3 15 -9 15 -13z m629 11 c9 -6 10 -11 2 -15 -13 -8 -31 1 -31 15 0 11 11 11
29 0z m212 -14 c-11 -11 -41 -3 -41 11 0 5 12 7 26 4 17 -3 22 -8 15 -15z
m279 13 c0 -6 11 -20 25 -32 24 -21 34 -48 17 -48 -9 0 -72 74 -72 84 0 3 7 6
15 6 8 0 15 -5 15 -10z m202 -9 c10 -9 13 -75 4 -89 -10 -16 -28 -5 -25 16 5
30 -12 62 -31 62 -20 0 -33 13 -24 23 7 7 66 -2 76 -12z m85 3 c8 -21 -13 -42
-28 -27 -13 13 -5 43 11 43 6 0 13 -7 17 -16z m178 6 c3 -5 -1 -10 -9 -10 -9
0 -16 5 -16 10 0 6 4 10 9 10 6 0 13 -4 16 -10z m123 -1 c-2 -6 -8 -10 -13
-10 -5 0 -11 4 -13 10 -2 6 4 11 13 11 9 0 15 -5 13 -11z m116 2 c3 -5 -1 -14
-8 -20 -16 -13 -32 2 -21 19 8 12 22 13 29 1z m1096 -12 c0 -5 -7 -9 -15 -9
-15 0 -20 12 -9 23 8 8 24 -1 24 -14z m105 12 c7 -12 -12 -24 -25 -16 -11 7
-4 25 10 25 5 0 11 -4 15 -9z m-3130 -11 c-3 -5 -10 -10 -16 -10 -5 0 -9 5 -9
10 0 6 7 10 16 10 8 0 12 -4 9 -10z m595 -4 c0 -8 -4 -17 -9 -21 -12 -7 -24
12 -16 25 9 15 25 12 25 -4z m688 -5 c3 -8 -1 -12 -9 -9 -7 2 -15 10 -17 17
-3 8 1 12 9 9 7 -2 15 -10 17 -17z m1160 7 c18 -18 15 -28 -8 -28 -11 0 -20 2
-20 4 0 2 -3 11 -6 20 -7 19 16 22 34 4z m150 -12 c3 -12 -1 -17 -10 -14 -7 3
-15 13 -16 22 -3 12 1 17 10 14 7 -3 15 -13 16 -22z m-1583 4 c9 -15 -3 -30
-20 -24 -23 9 -27 34 -5 34 10 0 22 -4 25 -10z m1843 -7 c5 -17 -26 -29 -40
-15 -6 6 -7 15 -3 22 9 14 37 9 43 -7z m-4238 -8 c0 -8 -4 -15 -10 -15 -5 0
-10 7 -10 15 0 8 5 15 10 15 6 0 10 -7 10 -15z m260 6 c0 -14 -18 -23 -31 -15
-8 4 -7 9 2 15 18 11 29 11 29 0z m1531 -19 c-6 -11 -8 -22 -5 -24 2 -3 -2
-11 -11 -18 -13 -11 -15 -8 -15 15 0 15 8 34 17 41 23 16 27 11 14 -14z m1261
-14 c-16 -16 -37 4 -28 28 6 16 8 16 23 1 13 -13 15 -19 5 -29z m312 11 c-8
-14 -34 -11 -34 4 0 8 3 17 7 20 9 9 34 -13 27 -24z m394 13 c3 -9 -2 -13 -14
-10 -9 1 -19 9 -22 16 -3 9 2 13 14 10 9 -1 19 -9 22 -16z m-3102 -28 c-5 -13
-10 -14 -18 -6 -6 6 -8 18 -4 28 5 13 10 14 18 6 6 -6 8 -18 4 -28z m1544 26
c0 -5 -4 -10 -9 -10 -6 0 -13 5 -16 10 -3 6 1 10 9 10 9 0 16 -4 16 -10z
m1370 -20 c12 -16 17 -30 13 -30 -16 0 -54 41 -48 51 9 13 12 12 35 -21z
m-2082 0 c7 -11 8 -20 3 -20 -6 0 -13 5 -16 10 -4 6 -14 9 -22 8 -9 -2 -18 3
-20 10 -8 20 41 14 55 -8z m207 -20 c-9 -15 -35 -12 -35 3 0 7 5 18 12 25 9 9
14 9 21 -3 4 -8 5 -20 2 -25z m245 30 c0 -5 -5 -10 -11 -10 -5 0 -7 5 -4 10 3
6 8 10 11 10 2 0 4 -4 4 -10z m544 -12 c5 -9 7 -20 3 -24 -8 -8 -47 24 -47 38
0 15 32 5 44 -14z m99 -3 c-5 -16 -33 -21 -33 -7 0 13 22 32 31 26 5 -2 6 -11
2 -19z m1072 5 c0 -22 -29 -18 -33 3 -3 14 1 18 15 15 10 -2 18 -10 18 -18z
m264 7 c13 -16 5 -27 -20 -27 -21 0 -33 15 -24 30 9 14 31 12 44 -3z m651 4
c0 -12 -39 -25 -48 -16 -7 7 17 25 36 25 6 0 12 -4 12 -9z m-4035 -10 c3 -5
-2 -17 -11 -26 -22 -21 -44 -4 -24 20 14 17 26 19 35 6z m1043 -3 c19 -19 14
-28 -16 -28 -35 0 -44 8 -29 26 15 17 30 17 45 2z m1300 -11 c2 -10 -3 -17
-12 -17 -9 0 -16 2 -16 4 0 2 -3 12 -6 21 -5 13 -2 16 12 13 10 -2 20 -11 22
-21z m610 -5 c2 -12 -1 -22 -6 -22 -15 0 -34 28 -27 40 10 17 30 6 33 -18z
m-725 4 c7 -18 -1 -26 -25 -26 -18 0 -25 20 -11 33 11 12 31 8 36 -7z m1423 3
c3 -6 1 -16 -5 -22 -8 -8 -17 -5 -33 11 l-22 22 26 0 c15 0 30 -5 34 -11z
m-1788 -17 c2 -7 -3 -12 -12 -12 -9 0 -16 7 -16 16 0 17 22 14 28 -4z m1880 6
c-3 -7 -14 -14 -26 -16 -16 -3 -20 1 -16 12 7 19 48 22 42 4z m-4043 -28 c-5
-8 -11 -8 -17 -2 -6 6 -7 16 -3 22 5 8 11 8 17 2 6 -6 7 -16 3 -22z m3010 20
c3 -5 1 -10 -4 -10 -6 0 -11 5 -11 10 0 6 2 10 4 10 3 0 8 -4 11 -10z m163 -9
c3 -8 -1 -12 -9 -9 -7 2 -15 10 -17 17 -3 8 1 12 9 9 7 -2 15 -10 17 -17z
m-308 -1 c0 -5 -7 -10 -15 -10 -8 0 -15 5 -15 10 0 6 7 10 15 10 8 0 15 -4 15
-10z m758 -2 c-6 -18 -28 -21 -28 -4 0 9 7 16 16 16 9 0 14 -5 12 -12z m1510
1 c-2 -6 -8 -10 -13 -10 -5 0 -11 4 -13 10 -2 6 4 11 13 11 9 0 15 -5 13 -11z
m-4035 -6 c-7 -2 -19 -2 -25 0 -7 3 -2 5 12 5 14 0 19 -2 13 -5z m1952 -3 c3
-5 -1 -10 -9 -10 -9 0 -16 5 -16 10 0 6 4 10 9 10 6 0 13 -4 16 -10z"/>
<path d="M16614 7788 c3 -15 26 -23 26 -8 0 6 -4 9 -9 6 -5 -4 -12 -1 -14 4
-3 6 -4 5 -3 -2z"/>
<path d="M16672 7690 c0 -14 2 -19 5 -12 2 6 2 18 0 25 -3 6 -5 1 -5 -13z"/>
<path d="M14666 8767 c3 -10 9 -15 12 -12 3 3 0 11 -7 18 -10 9 -11 8 -5 -6z"/>
<path d="M14600 8559 c0 -5 5 -7 10 -4 6 3 10 8 10 11 0 2 -4 4 -10 4 -5 0
-10 -5 -10 -11z"/>
<path d="M14583 8525 c0 -7 6 -12 13 -11 23 3 26 13 6 18 -11 3 -19 0 -19 -7z"/>
<path d="M14579 8483 c-13 -16 -12 -17 4 -4 9 7 17 15 17 17 0 8 -8 3 -21 -13z"/>
<path d="M14922 8328 c-7 -7 -12 -19 -11 -27 0 -10 2 -11 5 -4 3 7 13 9 22 6
13 -4 14 -3 3 5 -7 5 -10 15 -7 21 9 15 3 14 -12 -1z"/>
<path d="M14658 8248 c-55 -75 -140 -210 -167 -267 -24 -51 -28 -73 -28 -143
l0 -83 7 75 c12 128 17 141 145 337 37 58 69 96 85 102 23 9 23 9 4 10 -13 1
-31 -12 -46 -31z"/>
<path d="M14781 8264 c0 -11 3 -14 6 -6 3 7 2 16 -1 19 -3 4 -6 -2 -5 -13z"/>
<path d="M14742 8253 c8 -10 27 -45 42 -77 22 -49 129 -196 142 -196 11 0 1
20 -24 46 -27 28 -96 123 -97 134 -3 17 -37 83 -49 95 -21 21 -32 19 -14 -2z"/>
<path d="M14810 8240 c-6 -11 -8 -20 -6 -20 3 0 10 9 16 20 6 11 8 20 6 20 -3
0 -10 -9 -16 -20z"/>
<path d="M15138 8204 c-2 -5 1 -20 8 -34 8 -14 13 -18 13 -10 -1 24 -15 55
-21 44z"/>
<path d="M14940 7949 c7 -11 14 -19 16 -16 7 7 -7 37 -17 37 -6 0 -5 -9 1 -21z"/>
<path d="M14972 7850 c0 -14 2 -19 5 -12 2 6 2 18 0 25 -3 6 -5 1 -5 -13z"/>
<path d="M14970 7795 c0 -8 2 -15 4 -15 2 0 6 7 10 15 3 8 1 15 -4 15 -6 0
-10 -7 -10 -15z"/>
<path d="M14441 11938 c-36 -4 -95 -16 -131 -27 -126 -39 -390 -238 -390 -296
0 -12 6 -29 13 -39 12 -17 26 -18 128 -14 107 5 122 8 249 56 208 80 284 97
428 97 116 0 122 1 122 20 0 35 -107 131 -185 166 -82 37 -146 47 -234 37z"/>
<path d="M16244 9946 c-8 -21 10 -63 58 -138 72 -111 112 -139 398 -271 34
-15 90 -58 183 -140 43 -37 83 -65 89 -61 7 4 9 38 6 99 -5 83 -9 101 -46 176
-22 46 -54 100 -71 120 -53 63 -155 108 -431 188 -148 43 -178 47 -186 27z
m296 -202 c0 -8 -4 -12 -10 -9 -5 3 -10 10 -10 16 0 5 5 9 10 9 6 0 10 -7 10
-16z"/>
<path d="M8845 5256 c-16 -7 -39 -23 -50 -36 -20 -22 -20 -38 -23 -704 -2
-653 -1 -682 17 -712 50 -82 183 -82 236 0 13 19 16 71 17 315 l1 291 346 -2
346 -3 3 -290 c4 -318 4 -318 65 -355 60 -37 141 -21 186 36 21 26 21 32 21
710 l0 684 -33 36 c-41 45 -96 55 -162 29 -76 -28 -78 -38 -79 -340 l-1 -260
-345 -3 -345 -2 -1 263 c-1 218 -4 269 -17 294 -29 55 -115 78 -182 49z"/>
<path d="M15841 5247 c-13 -6 -34 -25 -45 -40 -21 -28 -21 -36 -24 -695 -2
-488 1 -674 9 -695 33 -80 164 -101 229 -35 l30 29 2 262 3 262 135 3 136 3
65 -108 c36 -60 109 -180 162 -268 53 -88 111 -172 128 -187 87 -74 229 -23
229 83 0 48 -9 66 -103 208 -96 147 -197 307 -197 314 0 3 25 17 55 31 144 66
235 216 235 391 0 222 -131 381 -365 440 -78 20 -646 22 -684 2z m599 -228
c104 -24 173 -108 174 -213 1 -108 -60 -191 -164 -224 -35 -11 -359 -23 -392
-14 -17 4 -18 24 -18 232 0 209 1 229 18 233 31 7 336 -4 382 -14z"/>
<path d="M10300 4869 c-43 -9 -90 -60 -90 -97 0 -15 20 -74 44 -132 24 -58 75
-181 114 -275 38 -93 111 -261 161 -373 l90 -202 -33 -78 c-19 -42 -52 -116
-74 -164 -57 -122 -64 -153 -47 -194 34 -83 177 -87 233 -7 10 16 61 132 111
258 91 224 311 760 411 998 61 144 65 193 21 238 -26 25 -37 29 -86 29 -100 0
-119 -19 -176 -172 -37 -102 -206 -544 -220 -578 l-11 -25 -13 35 c-153 398
-270 679 -293 702 -31 32 -92 47 -142 37z"/>
<path d="M11740 4866 c-71 -21 -91 -31 -158 -81 -106 -80 -178 -194 -201 -320
-15 -82 -13 -227 4 -308 55 -262 306 -434 565 -388 89 16 150 48 219 114 l53
52 -5 -96 c-8 -126 -33 -194 -93 -249 -125 -115 -295 -118 -475 -10 -59 36
-75 42 -106 37 -53 -9 -94 -53 -100 -109 -4 -37 -1 -49 22 -76 36 -43 172
-109 264 -128 82 -17 238 -19 321 -5 183 31 324 144 381 306 34 97 40 219 37
723 l-3 484 -33 29 c-27 24 -41 29 -85 29 -32 0 -61 -6 -76 -16 -27 -19 -51
-71 -51 -111 l0 -28 -33 35 c-86 94 -175 130 -315 129 -48 0 -107 -6 -132 -13z
m303 -238 c61 -27 130 -103 154 -171 40 -116 13 -291 -59 -372 -78 -90 -228
-117 -341 -62 -65 32 -100 70 -136 147 -23 48 -26 68 -26 160 0 96 3 110 28
160 46 89 89 126 182 156 50 17 134 9 198 -18z"/>
<path d="M13040 4864 c-160 -44 -298 -193 -344 -370 -35 -137 -13 -351 48
-472 36 -72 125 -163 194 -200 190 -101 392 -78 540 62 l55 51 -7 -92 c-9
-129 -29 -186 -82 -243 -67 -71 -127 -95 -244 -95 -86 0 -101 3 -160 31 -36
17 -83 43 -105 58 -50 35 -103 31 -146 -10 -63 -60 -46 -140 43 -198 148 -97
400 -127 597 -70 175 50 296 189 335 386 22 108 24 1050 2 1102 -20 48 -51 66
-113 66 -44 0 -58 -5 -85 -29 -29 -26 -33 -35 -33 -80 l0 -50 -48 50 c-30 32
-73 62 -115 82 -60 28 -78 32 -172 34 -71 2 -123 -2 -160 -13z m318 -238 c92
-46 139 -112 162 -220 35 -172 -44 -342 -184 -395 -110 -41 -225 -16 -307 69
-130 133 -116 411 25 521 80 63 209 73 304 25z"/>
<path d="M14386 4864 c-262 -63 -433 -332 -397 -623 26 -212 126 -363 295
-446 210 -103 498 -79 667 57 76 61 92 136 40 189 -25 24 -38 29 -79 29 -41 0
-57 -6 -96 -36 -26 -19 -72 -47 -102 -61 -50 -23 -65 -25 -152 -21 -106 5
-150 21 -217 80 -44 38 -85 116 -88 166 l-2 37 378 0 379 0 29 33 c26 28 29
40 29 95 0 141 -55 273 -155 372 -107 106 -211 146 -375 144 -52 0 -121 -7
-154 -15z m268 -208 c77 -32 142 -119 159 -213 l7 -33 -286 0 -286 0 7 38 c10
56 54 130 97 164 80 63 210 82 302 44z"/>
<path d="M18660 4864 c-162 -44 -299 -194 -344 -375 -20 -83 -21 -252 -1 -338
64 -268 317 -435 577 -380 79 17 134 46 198 105 l57 53 -4 -57 c-12 -192 -60
-284 -179 -343 -42 -20 -64 -24 -149 -24 -107 0 -120 4 -278 92 -43 24 -51 25
-87 14 -77 -23 -107 -118 -55 -179 34 -40 149 -99 241 -122 98 -25 287 -27
378 -4 150 39 262 128 321 257 55 120 58 148 60 657 3 550 1 593 -38 626 -42
36 -125 34 -168 -4 -26 -23 -33 -38 -37 -80 l-4 -51 -46 50 c-26 29 -71 64
-106 82 -56 28 -70 31 -171 34 -76 2 -127 -2 -165 -13z m301 -232 c63 -28 115
-76 147 -136 21 -42 27 -68 30 -148 8 -188 -54 -292 -207 -343 -140 -46 -295
34 -350 179 -44 117 -35 230 28 340 66 118 220 165 352 108z"/>
<path d="M17153 4850 c-52 -31 -55 -58 -51 -420 4 -276 7 -333 22 -380 65
-201 203 -303 429 -316 233 -14 415 70 491 228 47 99 56 179 56 508 0 237 -3
308 -14 335 -34 80 -173 90 -223 16 -16 -23 -19 -62 -23 -351 -6 -355 -8 -370
-68 -434 -85 -90 -262 -90 -345 0 -55 59 -60 90 -65 444 l-4 324 -33 33 c-29
29 -39 33 -86 33 -36 0 -65 -7 -86 -20z"/>
</g>
</svg>
